<svg xmlns="http://www.w3.org/2000/svg" version="1.1" xmlns:xlink="http://www.w3.org/1999/xlink" width="512" height="512" x="0" y="0" viewBox="0 0 512 512.001" style="enable-background:new 0 0 512 512" xml:space="preserve" class=""><g><path fill="#8224c7" d="M208.168 78.168h59.656l-22.594 22.633c-5.851 5.863-5.843 15.36.02 21.215 5.852 5.843 15.348 5.855 21.21-.02l48.118-48.2c5.922-5.929 5.867-15.687-.344-21.538L266.461 4.402c-5.852-5.859-15.348-5.867-21.211-.015-5.863 5.851-5.871 15.347-.02 21.21l22.532 22.571h-60.239c-158.574 0-259.23 172.582-179.714 311.3 4.117 7.184 13.277 9.677 20.472 5.555 7.188-4.12 9.672-13.289 5.555-20.476C-14.48 225.367 72.75 77.488 208.168 78.168zm0 0" opacity="1" data-original="#fe9022"></path><path fill="#0066ff" d="M314.578 73.8 266.457 122c-5.86 5.871-15.36 5.86-21.207.012-5.863-5.852-5.871-15.352-.023-21.211l22.601-22.63h-60.101v-30h60.03l-22.53-22.57c-5.848-5.87-5.84-15.359.023-21.218 5.86-5.852 15.36-5.84 21.207.02l47.781 47.859c6.211 5.847 6.262 15.61.34 21.539zm0 0" opacity="1" data-original="#fd6328" class=""></path><path fill="#8224c7" d="M387.648 152.535c-4.12-7.187-13.285-9.676-20.472-5.555-7.188 4.122-9.672 13.286-5.555 20.473 67.914 118.48-17.8 266.379-153.894 266.379h-60.094l22.594-22.633c5.855-5.863 5.847-15.36-.016-21.215-5.863-5.851-15.363-5.843-21.215.02l-48.117 48.2c-5.883 5.894-5.914 15.667.363 21.558l47.754 47.836c5.848 5.859 15.348 5.875 21.215.02 5.863-5.856 5.871-15.352.02-21.216l-22.532-22.566h60.219c158.652-.008 259.23-172.613 179.73-311.3zm0 0" opacity="1" data-original="#fe9022"></path><path fill="#0066ff" d="M207.727 463.832v-30c136.09 0 221.812-147.902 153.89-266.383-4.117-7.18-1.629-16.347 5.563-20.469 7.18-4.12 16.347-1.628 20.468 5.551 79.422 138.551-20.847 311.301-179.921 311.301zm0 0" opacity="1" data-original="#fd6328" class=""></path><path fill="#0066ff" d="M222.727 241h-30c-8.27 0-15-6.727-15-15 0-8.27 6.73-15 15-15h60c8.285 0 15-6.715 15-15 0-8.281-6.715-15-15-15h-30v-15c0-8.281-6.715-15-15-15-8.282 0-15 6.719-15 15v15c-24.813 0-44.997 20.188-44.997 45s20.184 45 44.997 45h30c8.273 0 15 6.73 15 15.004 0 8.273-6.688 15-15 15L162.73 301c-8.285 0-15 6.715-15 15-.003 8.281 6.711 15 14.997 15l30 .004V346c0 8.285 6.718 15 15 15 8.285 0 15-6.715 15-15v-14.996c24.867 0 45-20.121 45-45 0-24.816-20.188-45.004-45-45.004zm0 0" opacity="1" data-original="#fed941" class=""></path><g fill="#fcbe29"><path d="M267.727 286c0 24.879-20.13 45-45 45v15c0 8.281-6.72 15-15 15v-60h15c8.312 0 15-6.73 15-15s-6.727-15-15-15h-15v-30h15c24.812 0 45 20.191 45 45zM252.727 211h-45v-60c8.28 0 15 6.723 15 15v15h30c8.28 0 15 6.723 15 15 0 8.281-6.72 15-15 15zm0 0" fill="#8224c7" opacity="1" data-original="#fcbe29" class=""></path></g></g></svg>