<svg id="visual" viewBox="0 0 3000 1000" width="3000" height="1000" xmlns="http://www.w3.org/2000/svg" xmlns:xlink="http://www.w3.org/1999/xlink" version="1.1"><rect x="0" y="0" width="3000" height="1000" fill="#FFFFFF"></rect><g fill="#b9d5ff"><circle r="95" cx="2188" cy="303"></circle><circle r="36" cx="651" cy="326"></circle><circle r="84" cx="2562" cy="452"></circle><circle r="63" cx="1622" cy="144"></circle><circle r="63" cx="2228" cy="828"></circle><circle r="82" cx="336" cy="847"></circle><circle r="38" cx="1844" cy="399"></circle><circle r="58" cx="2591" cy="791"></circle><circle r="87" cx="2035" cy="491"></circle><circle r="48" cx="2665" cy="190"></circle><circle r="58" cx="2896" cy="665"></circle><circle r="75" cx="805" cy="840"></circle><circle r="57" cx="1068" cy="184"></circle><circle r="58" cx="1012" cy="402"></circle><circle r="56" cx="1182" cy="533"></circle><circle r="47" cx="348" cy="237"></circle><circle r="53" cx="1602" cy="445"></circle><circle r="59" cx="131" cy="571"></circle><circle r="77" cx="1782" cy="638"></circle><circle r="50" cx="1306" cy="812"></circle><circle r="39" cx="555" cy="596"></circle><circle r="73" cx="1893" cy="897"></circle><circle r="90" cx="1903" cy="163"></circle><circle r="53" cx="138" cy="98"></circle><circle r="54" cx="1010" cy="789"></circle><circle r="78" cx="1357" cy="451"></circle><circle r="83" cx="300" cy="440"></circle><circle r="77" cx="2022" cy="681"></circle><circle r="36" cx="2434" cy="197"></circle><circle r="61" cx="909" cy="589"></circle><circle r="60" cx="2358" cy="509"></circle><circle r="60" cx="2825" cy="896"></circle></g></svg>