<svg xmlns="http://www.w3.org/2000/svg" version="1.1" xmlns:xlink="http://www.w3.org/1999/xlink" width="512" height="512" x="0" y="0" viewBox="0 0 24 24" style="enable-background:new 0 0 512 512" xml:space="preserve" class=""><g><linearGradient id="a" x1="1" x2="23" y1="12" y2="12" gradientUnits="userSpaceOnUse"><stop stop-opacity="1" stop-color="#ee0979" offset="0"></stop><stop stop-opacity="1" stop-color="#0012ff" offset="1"></stop></linearGradient><path fill="url(#a)" d="M19.8 4.2C17.7 2.1 14.9 1 12 1S6.3 2.1 4.2 4.2 1 9.1 1 12s1.1 5.7 3.2 7.8S9.1 23 12 23s5.7-1.1 7.8-3.2S23 14.9 23 12s-1.1-5.7-3.2-7.8zm-1.4 14.2c-1.7 1.7-4 2.6-6.4 2.6s-4.7-.9-6.4-2.6C3.9 16.7 3 14.4 3 12s.9-4.7 2.6-6.4S9.6 3 12 3s4.7.9 6.4 2.6S21 9.6 21 12s-.9 4.7-2.6 6.4zM16.3 8.3 11 13.6l-2.3-2.3c-.4-.4-1-.4-1.4 0s-.4 1 0 1.4l3 3c.2.2.5.3.7.3s.5-.1.7-.3l6-6c.4-.4.4-1 0-1.4s-1-.4-1.4 0z" opacity="1" data-original="url(#a)" class=""></path></g></svg>