<svg id="visual" viewBox="0 0 3000 600" width="3000" height="600" xmlns="http://www.w3.org/2000/svg" xmlns:xlink="http://www.w3.org/1999/xlink" version="1.1"><rect x="0" y="0" width="3000" height="600" fill="#FFFFFF"></rect><path d="M0 334L23.8 318.3C47.7 302.7 95.3 271.3 143 262.2C190.7 253 238.3 266 286 263C333.7 260 381.3 241 428.8 241.3C476.3 241.7 523.7 261.3 571.2 259.2C618.7 257 666.3 233 714 233.5C761.7 234 809.3 259 857 265.3C904.7 271.7 952.3 259.3 1000 250.5C1047.7 241.7 1095.3 236.3 1143 235.7C1190.7 235 1238.3 239 1286 251.2C1333.7 263.3 1381.3 283.7 1428.8 271.3C1476.3 259 1523.7 214 1571.2 201C1618.7 188 1666.3 207 1714 211C1761.7 215 1809.3 204 1857 218.5C1904.7 233 1952.3 273 2000 289.3C2047.7 305.7 2095.3 298.3 2143 282C2190.7 265.7 2238.3 240.3 2286 228.5C2333.7 216.7 2381.3 218.3 2428.8 216.3C2476.3 214.3 2523.7 208.7 2571.2 222C2618.7 235.3 2666.3 267.7 2714 269.7C2761.7 271.7 2809.3 243.3 2857 222.2C2904.7 201 2952.3 187 2976.2 180L3000 173L3000 601L2976.2 601C2952.3 601 2904.7 601 2857 601C2809.3 601 2761.7 601 2714 601C2666.3 601 2618.7 601 2571.2 601C2523.7 601 2476.3 601 2428.8 601C2381.3 601 2333.7 601 2286 601C2238.3 601 2190.7 601 2143 601C2095.3 601 2047.7 601 2000 601C1952.3 601 1904.7 601 1857 601C1809.3 601 1761.7 601 1714 601C1666.3 601 1618.7 601 1571.2 601C1523.7 601 1476.3 601 1428.8 601C1381.3 601 1333.7 601 1286 601C1238.3 601 1190.7 601 1143 601C1095.3 601 1047.7 601 1000 601C952.3 601 904.7 601 857 601C809.3 601 761.7 601 714 601C666.3 601 618.7 601 571.2 601C523.7 601 476.3 601 428.8 601C381.3 601 333.7 601 286 601C238.3 601 190.7 601 143 601C95.3 601 47.7 601 23.8 601L0 601Z" fill="#0066ff"></path><path d="M0 255L23.8 256.7C47.7 258.3 95.3 261.7 143 276.3C190.7 291 238.3 317 286 311.3C333.7 305.7 381.3 268.3 428.8 272C476.3 275.7 523.7 320.3 571.2 331.2C618.7 342 666.3 319 714 297C761.7 275 809.3 254 857 269.5C904.7 285 952.3 337 1000 351C1047.7 365 1095.3 341 1143 313.5C1190.7 286 1238.3 255 1286 256C1333.7 257 1381.3 290 1428.8 300.8C1476.3 311.7 1523.7 300.3 1571.2 296.3C1618.7 292.3 1666.3 295.7 1714 285C1761.7 274.3 1809.3 249.7 1857 252.7C1904.7 255.7 1952.3 286.3 2000 300.3C2047.7 314.3 2095.3 311.7 2143 297.3C2190.7 283 2238.3 257 2286 258.8C2333.7 260.7 2381.3 290.3 2428.8 301.8C2476.3 313.3 2523.7 306.7 2571.2 302.8C2618.7 299 2666.3 298 2714 308.8C2761.7 319.7 2809.3 342.3 2857 340.2C2904.7 338 2952.3 311 2976.2 297.5L3000 284L3000 601L2976.2 601C2952.3 601 2904.7 601 2857 601C2809.3 601 2761.7 601 2714 601C2666.3 601 2618.7 601 2571.2 601C2523.7 601 2476.3 601 2428.8 601C2381.3 601 2333.7 601 2286 601C2238.3 601 2190.7 601 2143 601C2095.3 601 2047.7 601 2000 601C1952.3 601 1904.7 601 1857 601C1809.3 601 1761.7 601 1714 601C1666.3 601 1618.7 601 1571.2 601C1523.7 601 1476.3 601 1428.8 601C1381.3 601 1333.7 601 1286 601C1238.3 601 1190.7 601 1143 601C1095.3 601 1047.7 601 1000 601C952.3 601 904.7 601 857 601C809.3 601 761.7 601 714 601C666.3 601 618.7 601 571.2 601C523.7 601 476.3 601 428.8 601C381.3 601 333.7 601 286 601C238.3 601 190.7 601 143 601C95.3 601 47.7 601 23.8 601L0 601Z" fill="#005fe7"></path><path d="M0 315L23.8 329.7C47.7 344.3 95.3 373.7 143 385.8C190.7 398 238.3 393 286 375C333.7 357 381.3 326 428.8 317.2C476.3 308.3 523.7 321.7 571.2 323C618.7 324.3 666.3 313.7 714 319.7C761.7 325.7 809.3 348.3 857 359C904.7 369.7 952.3 368.3 1000 360.5C1047.7 352.7 1095.3 338.3 1143 341.7C1190.7 345 1238.3 366 1286 365.3C1333.7 364.7 1381.3 342.3 1428.8 326.3C1476.3 310.3 1523.7 300.7 1571.2 311.8C1618.7 323 1666.3 355 1714 371.8C1761.7 388.7 1809.3 390.3 1857 387.7C1904.7 385 1952.3 378 2000 374.2C2047.7 370.3 2095.3 369.7 2143 369.3C2190.7 369 2238.3 369 2286 367.8C2333.7 366.7 2381.3 364.3 2428.8 372.5C2476.3 380.7 2523.7 399.3 2571.2 394.7C2618.7 390 2666.3 362 2714 342.8C2761.7 323.7 2809.3 313.3 2857 314.5C2904.7 315.7 2952.3 328.3 2976.2 334.7L3000 341L3000 601L2976.2 601C2952.3 601 2904.7 601 2857 601C2809.3 601 2761.7 601 2714 601C2666.3 601 2618.7 601 2571.2 601C2523.7 601 2476.3 601 2428.8 601C2381.3 601 2333.7 601 2286 601C2238.3 601 2190.7 601 2143 601C2095.3 601 2047.7 601 2000 601C1952.3 601 1904.7 601 1857 601C1809.3 601 1761.7 601 1714 601C1666.3 601 1618.7 601 1571.2 601C1523.7 601 1476.3 601 1428.8 601C1381.3 601 1333.7 601 1286 601C1238.3 601 1190.7 601 1143 601C1095.3 601 1047.7 601 1000 601C952.3 601 904.7 601 857 601C809.3 601 761.7 601 714 601C666.3 601 618.7 601 571.2 601C523.7 601 476.3 601 428.8 601C381.3 601 333.7 601 286 601C238.3 601 190.7 601 143 601C95.3 601 47.7 601 23.8 601L0 601Z" fill="#0059cf"></path><path d="M0 475L23.8 471.7C47.7 468.3 95.3 461.7 143 455C190.7 448.3 238.3 441.7 286 431.5C333.7 421.3 381.3 407.7 428.8 405.3C476.3 403 523.7 412 571.2 418.2C618.7 424.3 666.3 427.7 714 422.2C761.7 416.7 809.3 402.3 857 404.7C904.7 407 952.3 426 1000 429.3C1047.7 432.7 1095.3 420.3 1143 418.7C1190.7 417 1238.3 426 1286 428.2C1333.7 430.3 1381.3 425.7 1428.8 431.5C1476.3 437.3 1523.7 453.7 1571.2 450.3C1618.7 447 1666.3 424 1714 424.3C1761.7 424.7 1809.3 448.3 1857 453.2C1904.7 458 1952.3 444 2000 440C2047.7 436 2095.3 442 2143 436.8C2190.7 431.7 2238.3 415.3 2286 416C2333.7 416.7 2381.3 434.3 2428.8 439.2C2476.3 444 2523.7 436 2571.2 438.3C2618.7 440.7 2666.3 453.3 2714 456.3C2761.7 459.3 2809.3 452.7 2857 447.2C2904.7 441.7 2952.3 437.3 2976.2 435.2L3000 433L3000 601L2976.2 601C2952.3 601 2904.7 601 2857 601C2809.3 601 2761.7 601 2714 601C2666.3 601 2618.7 601 2571.2 601C2523.7 601 2476.3 601 2428.8 601C2381.3 601 2333.7 601 2286 601C2238.3 601 2190.7 601 2143 601C2095.3 601 2047.7 601 2000 601C1952.3 601 1904.7 601 1857 601C1809.3 601 1761.7 601 1714 601C1666.3 601 1618.7 601 1571.2 601C1523.7 601 1476.3 601 1428.8 601C1381.3 601 1333.7 601 1286 601C1238.3 601 1190.7 601 1143 601C1095.3 601 1047.7 601 1000 601C952.3 601 904.7 601 857 601C809.3 601 761.7 601 714 601C666.3 601 618.7 601 571.2 601C523.7 601 476.3 601 428.8 601C381.3 601 333.7 601 286 601C238.3 601 190.7 601 143 601C95.3 601 47.7 601 23.8 601L0 601Z" fill="#0051b7"></path><path d="M0 431L23.8 429.3C47.7 427.7 95.3 424.3 143 436.2C190.7 448 238.3 475 286 481.3C333.7 487.7 381.3 473.3 428.8 463.8C476.3 454.3 523.7 449.7 571.2 447.5C618.7 445.3 666.3 445.7 714 443.5C761.7 441.3 809.3 436.7 857 438.2C904.7 439.7 952.3 447.3 1000 455.5C1047.7 463.7 1095.3 472.3 1143 467.7C1190.7 463 1238.3 445 1286 437.3C1333.7 429.7 1381.3 432.3 1428.8 445.5C1476.3 458.7 1523.7 482.3 1571.2 486.5C1618.7 490.7 1666.3 475.3 1714 463.2C1761.7 451 1809.3 442 1857 442.5C1904.7 443 1952.3 453 2000 464C2047.7 475 2095.3 487 2143 491C2190.7 495 2238.3 491 2286 483.2C2333.7 475.3 2381.3 463.7 2428.8 454.7C2476.3 445.7 2523.7 439.3 2571.2 442.5C2618.7 445.7 2666.3 458.3 2714 460.5C2761.7 462.7 2809.3 454.3 2857 459.8C2904.7 465.3 2952.3 484.7 2976.2 494.3L3000 504L3000 601L2976.2 601C2952.3 601 2904.7 601 2857 601C2809.3 601 2761.7 601 2714 601C2666.3 601 2618.7 601 2571.2 601C2523.7 601 2476.3 601 2428.8 601C2381.3 601 2333.7 601 2286 601C2238.3 601 2190.7 601 2143 601C2095.3 601 2047.7 601 2000 601C1952.3 601 1904.7 601 1857 601C1809.3 601 1761.7 601 1714 601C1666.3 601 1618.7 601 1571.2 601C1523.7 601 1476.3 601 1428.8 601C1381.3 601 1333.7 601 1286 601C1238.3 601 1190.7 601 1143 601C1095.3 601 1047.7 601 1000 601C952.3 601 904.7 601 857 601C809.3 601 761.7 601 714 601C666.3 601 618.7 601 571.2 601C523.7 601 476.3 601 428.8 601C381.3 601 333.7 601 286 601C238.3 601 190.7 601 143 601C95.3 601 47.7 601 23.8 601L0 601Z" fill="#004a9f"></path><path d="M0 530L23.8 531.2C47.7 532.3 95.3 534.7 143 535.5C190.7 536.3 238.3 535.7 286 532C333.7 528.3 381.3 521.7 428.8 524.5C476.3 527.3 523.7 539.7 571.2 538.5C618.7 537.3 666.3 522.7 714 511.7C761.7 500.7 809.3 493.3 857 501.2C904.7 509 952.3 532 1000 532.7C1047.7 533.3 1095.3 511.7 1143 510.2C1190.7 508.7 1238.3 527.3 1286 534.7C1333.7 542 1381.3 538 1428.8 530C1476.3 522 1523.7 510 1571.2 505.3C1618.7 500.7 1666.3 503.3 1714 503.2C1761.7 503 1809.3 500 1857 497.7C1904.7 495.3 1952.3 493.7 2000 491.8C2047.7 490 2095.3 488 2143 496.7C2190.7 505.3 2238.3 524.7 2286 530.5C2333.7 536.3 2381.3 528.7 2428.8 529C2476.3 529.3 2523.7 537.7 2571.2 534.8C2618.7 532 2666.3 518 2714 515.3C2761.7 512.7 2809.3 521.3 2857 523C2904.7 524.7 2952.3 519.3 2976.2 516.7L3000 514L3000 601L2976.2 601C2952.3 601 2904.7 601 2857 601C2809.3 601 2761.7 601 2714 601C2666.3 601 2618.7 601 2571.2 601C2523.7 601 2476.3 601 2428.8 601C2381.3 601 2333.7 601 2286 601C2238.3 601 2190.7 601 2143 601C2095.3 601 2047.7 601 2000 601C1952.3 601 1904.7 601 1857 601C1809.3 601 1761.7 601 1714 601C1666.3 601 1618.7 601 1571.2 601C1523.7 601 1476.3 601 1428.8 601C1381.3 601 1333.7 601 1286 601C1238.3 601 1190.7 601 1143 601C1095.3 601 1047.7 601 1000 601C952.3 601 904.7 601 857 601C809.3 601 761.7 601 714 601C666.3 601 618.7 601 571.2 601C523.7 601 476.3 601 428.8 601C381.3 601 333.7 601 286 601C238.3 601 190.7 601 143 601C95.3 601 47.7 601 23.8 601L0 601Z" fill="#004287"></path></svg>