<svg id="visual" viewBox="0 0 2200 600" width="2200" height="600" xmlns="http://www.w3.org/2000/svg" xmlns:xlink="http://www.w3.org/1999/xlink" version="1.1"><rect x="0" y="0" width="2200" height="600" fill="#f6f6f6"></rect><path d="M0 261L26.2 256.7C52.3 252.3 104.7 243.7 157 245.3C209.3 247 261.7 259 314 258.2C366.3 257.3 418.7 243.7 471.2 242C523.7 240.3 576.3 250.7 628.8 251.3C681.3 252 733.7 243 786 236C838.3 229 890.7 224 943 222.3C995.3 220.7 1047.7 222.3 1100 235.2C1152.3 248 1204.7 272 1257 282.3C1309.3 292.7 1361.7 289.3 1414 278.2C1466.3 267 1518.7 248 1571.2 246.3C1623.7 244.7 1676.3 260.3 1728.8 271.5C1781.3 282.7 1833.7 289.3 1886 290.3C1938.3 291.3 1990.7 286.7 2043 281.8C2095.3 277 2147.7 272 2173.8 269.5L2200 267L2200 601L2173.8 601C2147.7 601 2095.3 601 2043 601C1990.7 601 1938.3 601 1886 601C1833.7 601 1781.3 601 1728.8 601C1676.3 601 1623.7 601 1571.2 601C1518.7 601 1466.3 601 1414 601C1361.7 601 1309.3 601 1257 601C1204.7 601 1152.3 601 1100 601C1047.7 601 995.3 601 943 601C890.7 601 838.3 601 786 601C733.7 601 681.3 601 628.8 601C576.3 601 523.7 601 471.2 601C418.7 601 366.3 601 314 601C261.7 601 209.3 601 157 601C104.7 601 52.3 601 26.2 601L0 601Z" fill="#0066ff"></path><path d="M0 335L26.2 324.3C52.3 313.7 104.7 292.3 157 288C209.3 283.7 261.7 296.3 314 303.8C366.3 311.3 418.7 313.7 471.2 316C523.7 318.3 576.3 320.7 628.8 321.7C681.3 322.7 733.7 322.3 786 322.7C838.3 323 890.7 324 943 319.7C995.3 315.3 1047.7 305.7 1100 303.5C1152.3 301.3 1204.7 306.7 1257 302.5C1309.3 298.3 1361.7 284.7 1414 279.7C1466.3 274.7 1518.7 278.3 1571.2 288C1623.7 297.7 1676.3 313.3 1728.8 312.5C1781.3 311.7 1833.7 294.3 1886 288.2C1938.3 282 1990.7 287 2043 290.5C2095.3 294 2147.7 296 2173.8 297L2200 298L2200 601L2173.8 601C2147.7 601 2095.3 601 2043 601C1990.7 601 1938.3 601 1886 601C1833.7 601 1781.3 601 1728.8 601C1676.3 601 1623.7 601 1571.2 601C1518.7 601 1466.3 601 1414 601C1361.7 601 1309.3 601 1257 601C1204.7 601 1152.3 601 1100 601C1047.7 601 995.3 601 943 601C890.7 601 838.3 601 786 601C733.7 601 681.3 601 628.8 601C576.3 601 523.7 601 471.2 601C418.7 601 366.3 601 314 601C261.7 601 209.3 601 157 601C104.7 601 52.3 601 26.2 601L0 601Z" fill="#355ff8"></path><path d="M0 311L26.2 312.3C52.3 313.7 104.7 316.3 157 324.5C209.3 332.7 261.7 346.3 314 345.2C366.3 344 418.7 328 471.2 328.3C523.7 328.7 576.3 345.3 628.8 354.3C681.3 363.3 733.7 364.7 786 365.2C838.3 365.7 890.7 365.3 943 361.2C995.3 357 1047.7 349 1100 344.2C1152.3 339.3 1204.7 337.7 1257 332.2C1309.3 326.7 1361.7 317.3 1414 315.8C1466.3 314.3 1518.7 320.7 1571.2 331.5C1623.7 342.3 1676.3 357.7 1728.8 355.5C1781.3 353.3 1833.7 333.7 1886 329.3C1938.3 325 1990.7 336 2043 340.7C2095.3 345.3 2147.7 343.7 2173.8 342.8L2200 342L2200 601L2173.8 601C2147.7 601 2095.3 601 2043 601C1990.7 601 1938.3 601 1886 601C1833.7 601 1781.3 601 1728.8 601C1676.3 601 1623.7 601 1571.2 601C1518.7 601 1466.3 601 1414 601C1361.7 601 1309.3 601 1257 601C1204.7 601 1152.3 601 1100 601C1047.7 601 995.3 601 943 601C890.7 601 838.3 601 786 601C733.7 601 681.3 601 628.8 601C576.3 601 523.7 601 471.2 601C418.7 601 366.3 601 314 601C261.7 601 209.3 601 157 601C104.7 601 52.3 601 26.2 601L0 601Z" fill="#4b57f1"></path><path d="M0 357L26.2 367C52.3 377 104.7 397 157 402.3C209.3 407.7 261.7 398.3 314 388.2C366.3 378 418.7 367 471.2 362C523.7 357 576.3 358 628.8 358.8C681.3 359.7 733.7 360.3 786 368.3C838.3 376.3 890.7 391.7 943 393.3C995.3 395 1047.7 383 1100 381.3C1152.3 379.7 1204.7 388.3 1257 391C1309.3 393.7 1361.7 390.3 1414 390.2C1466.3 390 1518.7 393 1571.2 391.2C1623.7 389.3 1676.3 382.7 1728.8 384.5C1781.3 386.3 1833.7 396.7 1886 394C1938.3 391.3 1990.7 375.7 2043 377C2095.3 378.3 2147.7 396.7 2173.8 405.8L2200 415L2200 601L2173.8 601C2147.7 601 2095.3 601 2043 601C1990.7 601 1938.3 601 1886 601C1833.7 601 1781.3 601 1728.8 601C1676.3 601 1623.7 601 1571.2 601C1518.7 601 1466.3 601 1414 601C1361.7 601 1309.3 601 1257 601C1204.7 601 1152.3 601 1100 601C1047.7 601 995.3 601 943 601C890.7 601 838.3 601 786 601C733.7 601 681.3 601 628.8 601C576.3 601 523.7 601 471.2 601C418.7 601 366.3 601 314 601C261.7 601 209.3 601 157 601C104.7 601 52.3 601 26.2 601L0 601Z" fill="#5a4ee9"></path><path d="M0 410L26.2 414.8C52.3 419.7 104.7 429.3 157 436.7C209.3 444 261.7 449 314 446.8C366.3 444.7 418.7 435.3 471.2 427C523.7 418.7 576.3 411.3 628.8 413.8C681.3 416.3 733.7 428.7 786 433.2C838.3 437.7 890.7 434.3 943 428.2C995.3 422 1047.7 413 1100 410C1152.3 407 1204.7 410 1257 414.7C1309.3 419.3 1361.7 425.7 1414 430.7C1466.3 435.7 1518.7 439.3 1571.2 436.8C1623.7 434.3 1676.3 425.7 1728.8 424.5C1781.3 423.3 1833.7 429.7 1886 434C1938.3 438.3 1990.7 440.7 2043 440.3C2095.3 440 2147.7 437 2173.8 435.5L2200 434L2200 601L2173.8 601C2147.7 601 2095.3 601 2043 601C1990.7 601 1938.3 601 1886 601C1833.7 601 1781.3 601 1728.8 601C1676.3 601 1623.7 601 1571.2 601C1518.7 601 1466.3 601 1414 601C1361.7 601 1309.3 601 1257 601C1204.7 601 1152.3 601 1100 601C1047.7 601 995.3 601 943 601C890.7 601 838.3 601 786 601C733.7 601 681.3 601 628.8 601C576.3 601 523.7 601 471.2 601C418.7 601 366.3 601 314 601C261.7 601 209.3 601 157 601C104.7 601 52.3 601 26.2 601L0 601Z" fill="#6746e1"></path><path d="M0 473L26.2 470C52.3 467 104.7 461 157 459.8C209.3 458.7 261.7 462.3 314 461.7C366.3 461 418.7 456 471.2 452.5C523.7 449 576.3 447 628.8 447.3C681.3 447.7 733.7 450.3 786 457.8C838.3 465.3 890.7 477.7 943 481.3C995.3 485 1047.7 480 1100 478.2C1152.3 476.3 1204.7 477.7 1257 479.3C1309.3 481 1361.7 483 1414 485.8C1466.3 488.7 1518.7 492.3 1571.2 493.5C1623.7 494.7 1676.3 493.3 1728.8 491.3C1781.3 489.3 1833.7 486.7 1886 479.8C1938.3 473 1990.7 462 2043 460.8C2095.3 459.7 2147.7 468.3 2173.8 472.7L2200 477L2200 601L2173.8 601C2147.7 601 2095.3 601 2043 601C1990.7 601 1938.3 601 1886 601C1833.7 601 1781.3 601 1728.8 601C1676.3 601 1623.7 601 1571.2 601C1518.7 601 1466.3 601 1414 601C1361.7 601 1309.3 601 1257 601C1204.7 601 1152.3 601 1100 601C1047.7 601 995.3 601 943 601C890.7 601 838.3 601 786 601C733.7 601 681.3 601 628.8 601C576.3 601 523.7 601 471.2 601C418.7 601 366.3 601 314 601C261.7 601 209.3 601 157 601C104.7 601 52.3 601 26.2 601L0 601Z" fill="#713cd9"></path><path d="M0 497L26.2 502.7C52.3 508.3 104.7 519.7 157 518.5C209.3 517.3 261.7 503.7 314 500.8C366.3 498 418.7 506 471.2 505.2C523.7 504.3 576.3 494.7 628.8 497C681.3 499.3 733.7 513.7 786 521.7C838.3 529.7 890.7 531.3 943 527.2C995.3 523 1047.7 513 1100 506.8C1152.3 500.7 1204.7 498.3 1257 499.5C1309.3 500.7 1361.7 505.3 1414 503.8C1466.3 502.3 1518.7 494.7 1571.2 495.8C1623.7 497 1676.3 507 1728.8 509.7C1781.3 512.3 1833.7 507.7 1886 503.8C1938.3 500 1990.7 497 2043 496.8C2095.3 496.7 2147.7 499.3 2173.8 500.7L2200 502L2200 601L2173.8 601C2147.7 601 2095.3 601 2043 601C1990.7 601 1938.3 601 1886 601C1833.7 601 1781.3 601 1728.8 601C1676.3 601 1623.7 601 1571.2 601C1518.7 601 1466.3 601 1414 601C1361.7 601 1309.3 601 1257 601C1204.7 601 1152.3 601 1100 601C1047.7 601 995.3 601 943 601C890.7 601 838.3 601 786 601C733.7 601 681.3 601 628.8 601C576.3 601 523.7 601 471.2 601C418.7 601 366.3 601 314 601C261.7 601 209.3 601 157 601C104.7 601 52.3 601 26.2 601L0 601Z" fill="#7a31d0"></path><path d="M0 540L26.2 539.5C52.3 539 104.7 538 157 537.8C209.3 537.7 261.7 538.3 314 539C366.3 539.7 418.7 540.3 471.2 545.8C523.7 551.3 576.3 561.7 628.8 563.2C681.3 564.7 733.7 557.3 786 550.7C838.3 544 890.7 538 943 542C995.3 546 1047.7 560 1100 561.8C1152.3 563.7 1204.7 553.3 1257 546.8C1309.3 540.3 1361.7 537.7 1414 543C1466.3 548.3 1518.7 561.7 1571.2 561.7C1623.7 561.7 1676.3 548.3 1728.8 545.3C1781.3 542.3 1833.7 549.7 1886 550.2C1938.3 550.7 1990.7 544.3 2043 546.7C2095.3 549 2147.7 560 2173.8 565.5L2200 571L2200 601L2173.8 601C2147.7 601 2095.3 601 2043 601C1990.7 601 1938.3 601 1886 601C1833.7 601 1781.3 601 1728.8 601C1676.3 601 1623.7 601 1571.2 601C1518.7 601 1466.3 601 1414 601C1361.7 601 1309.3 601 1257 601C1204.7 601 1152.3 601 1100 601C1047.7 601 995.3 601 943 601C890.7 601 838.3 601 786 601C733.7 601 681.3 601 628.8 601C576.3 601 523.7 601 471.2 601C418.7 601 366.3 601 314 601C261.7 601 209.3 601 157 601C104.7 601 52.3 601 26.2 601L0 601Z" fill="#8224c7"></path></svg>