<svg id="visual" viewBox="0 0 2000 600" width="2000" height="600" xmlns="http://www.w3.org/2000/svg" xmlns:xlink="http://www.w3.org/1999/xlink" version="1.1"><rect x="0" y="0" width="2000" height="600" fill="#FFFFFF"></rect><path d="M0 297L25.7 290.3C51.3 283.7 102.7 270.3 154 267.7C205.3 265 256.7 273 308 281.8C359.3 290.7 410.7 300.3 461.8 284.8C513 269.3 564 228.7 615.2 219C666.3 209.3 717.7 230.7 769 232.3C820.3 234 871.7 216 923 213.3C974.3 210.7 1025.7 223.3 1077 223C1128.3 222.7 1179.7 209.3 1231 205.5C1282.3 201.7 1333.7 207.3 1384.8 214C1436 220.7 1487 228.3 1538.2 235C1589.3 241.7 1640.7 247.3 1692 254.2C1743.3 261 1794.7 269 1846 262.5C1897.3 256 1948.7 235 1974.3 224.5L2000 214L2000 601L1974.3 601C1948.7 601 1897.3 601 1846 601C1794.7 601 1743.3 601 1692 601C1640.7 601 1589.3 601 1538.2 601C1487 601 1436 601 1384.8 601C1333.7 601 1282.3 601 1231 601C1179.7 601 1128.3 601 1077 601C1025.7 601 974.3 601 923 601C871.7 601 820.3 601 769 601C717.7 601 666.3 601 615.2 601C564 601 513 601 461.8 601C410.7 601 359.3 601 308 601C256.7 601 205.3 601 154 601C102.7 601 51.3 601 25.7 601L0 601Z" fill="#0066ff"></path><path d="M0 265L25.7 267.8C51.3 270.7 102.7 276.3 154 277.5C205.3 278.7 256.7 275.3 308 290.2C359.3 305 410.7 338 461.8 342.2C513 346.3 564 321.7 615.2 318.2C666.3 314.7 717.7 332.3 769 328C820.3 323.7 871.7 297.3 923 286.7C974.3 276 1025.7 281 1077 281.5C1128.3 282 1179.7 278 1231 284.3C1282.3 290.7 1333.7 307.3 1384.8 308.5C1436 309.7 1487 295.3 1538.2 289C1589.3 282.7 1640.7 284.3 1692 292.3C1743.3 300.3 1794.7 314.7 1846 317.5C1897.3 320.3 1948.7 311.7 1974.3 307.3L2000 303L2000 601L1974.3 601C1948.7 601 1897.3 601 1846 601C1794.7 601 1743.3 601 1692 601C1640.7 601 1589.3 601 1538.2 601C1487 601 1436 601 1384.8 601C1333.7 601 1282.3 601 1231 601C1179.7 601 1128.3 601 1077 601C1025.7 601 974.3 601 923 601C871.7 601 820.3 601 769 601C717.7 601 666.3 601 615.2 601C564 601 513 601 461.8 601C410.7 601 359.3 601 308 601C256.7 601 205.3 601 154 601C102.7 601 51.3 601 25.7 601L0 601Z" fill="#4659f3"></path><path d="M0 424L25.7 420.2C51.3 416.3 102.7 408.7 154 402.7C205.3 396.7 256.7 392.3 308 389.8C359.3 387.3 410.7 386.7 461.8 394.2C513 401.7 564 417.3 615.2 422.8C666.3 428.3 717.7 423.7 769 414.3C820.3 405 871.7 391 923 378C974.3 365 1025.7 353 1077 355.3C1128.3 357.7 1179.7 374.3 1231 379C1282.3 383.7 1333.7 376.3 1384.8 374.3C1436 372.3 1487 375.7 1538.2 372.5C1589.3 369.3 1640.7 359.7 1692 360.8C1743.3 362 1794.7 374 1846 380.7C1897.3 387.3 1948.7 388.7 1974.3 389.3L2000 390L2000 601L1974.3 601C1948.7 601 1897.3 601 1846 601C1794.7 601 1743.3 601 1692 601C1640.7 601 1589.3 601 1538.2 601C1487 601 1436 601 1384.8 601C1333.7 601 1282.3 601 1231 601C1179.7 601 1128.3 601 1077 601C1025.7 601 974.3 601 923 601C871.7 601 820.3 601 769 601C717.7 601 666.3 601 615.2 601C564 601 513 601 461.8 601C410.7 601 359.3 601 308 601C256.7 601 205.3 601 154 601C102.7 601 51.3 601 25.7 601L0 601Z" fill="#614ae5"></path><path d="M0 431L25.7 430.3C51.3 429.7 102.7 428.3 154 438C205.3 447.7 256.7 468.3 308 477.7C359.3 487 410.7 485 461.8 481.3C513 477.7 564 472.3 615.2 466C666.3 459.7 717.7 452.3 769 450.3C820.3 448.3 871.7 451.7 923 460.2C974.3 468.7 1025.7 482.3 1077 485.5C1128.3 488.7 1179.7 481.3 1231 468.2C1282.3 455 1333.7 436 1384.8 434.8C1436 433.7 1487 450.3 1538.2 454.2C1589.3 458 1640.7 449 1692 442.5C1743.3 436 1794.7 432 1846 433.5C1897.3 435 1948.7 442 1974.3 445.5L2000 449L2000 601L1974.3 601C1948.7 601 1897.3 601 1846 601C1794.7 601 1743.3 601 1692 601C1640.7 601 1589.3 601 1538.2 601C1487 601 1436 601 1384.8 601C1333.7 601 1282.3 601 1231 601C1179.7 601 1128.3 601 1077 601C1025.7 601 974.3 601 923 601C871.7 601 820.3 601 769 601C717.7 601 666.3 601 615.2 601C564 601 513 601 461.8 601C410.7 601 359.3 601 308 601C256.7 601 205.3 601 154 601C102.7 601 51.3 601 25.7 601L0 601Z" fill="#7439d7"></path><path d="M0 526L25.7 526.3C51.3 526.7 102.7 527.3 154 528.5C205.3 529.7 256.7 531.3 308 525.3C359.3 519.3 410.7 505.7 461.8 508.2C513 510.7 564 529.3 615.2 540C666.3 550.7 717.7 553.3 769 547.7C820.3 542 871.7 528 923 523C974.3 518 1025.7 522 1077 527.2C1128.3 532.3 1179.7 538.7 1231 535.2C1282.3 531.7 1333.7 518.3 1384.8 515.7C1436 513 1487 521 1538.2 519.5C1589.3 518 1640.7 507 1692 500.8C1743.3 494.7 1794.7 493.3 1846 494.8C1897.3 496.3 1948.7 500.7 1974.3 502.8L2000 505L2000 601L1974.3 601C1948.7 601 1897.3 601 1846 601C1794.7 601 1743.3 601 1692 601C1640.7 601 1589.3 601 1538.2 601C1487 601 1436 601 1384.8 601C1333.7 601 1282.3 601 1231 601C1179.7 601 1128.3 601 1077 601C1025.7 601 974.3 601 923 601C871.7 601 820.3 601 769 601C717.7 601 666.3 601 615.2 601C564 601 513 601 461.8 601C410.7 601 359.3 601 308 601C256.7 601 205.3 601 154 601C102.7 601 51.3 601 25.7 601L0 601Z" fill="#8224c7"></path></svg>