<svg id="visual" viewBox="0 0 2000 600" width="2000" height="600" xmlns="http://www.w3.org/2000/svg" xmlns:xlink="http://www.w3.org/1999/xlink" version="1.1"><rect x="0" y="0" width="2000" height="600" fill="#FFFFFF"></rect><path d="M0 501L286 417L571 340L857 487L1143 274L1429 494L1714 467L2000 336L2000 0L1714 0L1429 0L1143 0L857 0L571 0L286 0L0 0Z" fill="#0066ff"></path><path d="M0 231L286 399L571 317L857 415L1143 301L1429 371L1714 239L2000 340L2000 0L1714 0L1429 0L1143 0L857 0L571 0L286 0L0 0Z" fill="#4659f3"></path><path d="M0 298L286 170L571 252L857 190L1143 325L1429 304L1714 246L2000 264L2000 0L1714 0L1429 0L1143 0L857 0L571 0L286 0L0 0Z" fill="#614ae5"></path><path d="M0 148L286 218L571 91L857 138L1143 176L1429 204L1714 149L2000 187L2000 0L1714 0L1429 0L1143 0L857 0L571 0L286 0L0 0Z" fill="#7439d7"></path><path d="M0 91L286 67L571 111L857 80L1143 92L1429 81L1714 109L2000 69L2000 0L1714 0L1429 0L1143 0L857 0L571 0L286 0L0 0Z" fill="#8224c7"></path></svg>