<svg id="visual" viewBox="0 0 3000 700" width="3000" height="700" xmlns="http://www.w3.org/2000/svg" xmlns:xlink="http://www.w3.org/1999/xlink" version="1.1"><rect x="0" y="0" width="3000" height="700" fill="#ffffff"></rect><path d="M0 354L273 437L545 522L818 422L1091 566L1364 465L1636 617L1909 532L2182 539L2455 600L2727 381L3000 435L3000 0L2727 0L2455 0L2182 0L1909 0L1636 0L1364 0L1091 0L818 0L545 0L273 0L0 0Z" fill="#004287"></path><path d="M0 310L273 525L545 522L818 367L1091 503L1364 390L1636 313L1909 524L2182 507L2455 514L2727 293L3000 399L3000 0L2727 0L2455 0L2182 0L1909 0L1636 0L1364 0L1091 0L818 0L545 0L273 0L0 0Z" fill="#004ca5"></path><path d="M0 268L273 277L545 245L818 318L1091 389L1364 345L1636 369L1909 284L2182 362L2455 222L2727 200L3000 211L3000 0L2727 0L2455 0L2182 0L1909 0L1636 0L1364 0L1091 0L818 0L545 0L273 0L0 0Z" fill="#0055c3"></path><path d="M0 222L273 181L545 284L818 167L1091 134L1364 164L1636 209L1909 133L2182 175L2455 204L2727 113L3000 185L3000 0L2727 0L2455 0L2182 0L1909 0L1636 0L1364 0L1091 0L818 0L545 0L273 0L0 0Z" fill="#005ee1"></path><path d="M0 56L273 169L545 165L818 148L1091 183L1364 136L1636 123L1909 50L2182 191L2455 185L2727 103L3000 110L3000 0L2727 0L2455 0L2182 0L1909 0L1636 0L1364 0L1091 0L818 0L545 0L273 0L0 0Z" fill="#0066ff"></path></svg>