<svg id="visual" viewBox="0 0 900 450" width="900" height="450" xmlns="http://www.w3.org/2000/svg" xmlns:xlink="http://www.w3.org/1999/xlink" version="1.1"><path d="M0 19L6.5 19C13 19 26 19 39 19C52 19 65 19 78 19C91 19 104 19 117.2 19C130.3 19 143.7 19 156.8 19C170 19 183 19 196 19C209 19 222 19 235 19C248 19 261 19 274 19C287 19 300 19 313 19C326 19 339 19 352 19C365 19 378 19 391 19C404 19 417 19 430.2 19C443.3 19 456.7 19 469.8 19C483 19 496 19 509 19C522 19 535 19 548 19C561 19 574 19 587 19C600 19 613 19 626 19C639 19 652 19 665 19C678 19 691 19 704 19C717 19 730 19 743.2 19C756.3 19 769.7 19 782.8 19C796 19 809 19 822 19C835 19 848 19 861 19C874 19 887 19 893.5 19L900 19L900 0L893.5 0C887 0 874 0 861 0C848 0 835 0 822 0C809 0 796 0 782.8 0C769.7 0 756.3 0 743.2 0C730 0 717 0 704 0C691 0 678 0 665 0C652 0 639 0 626 0C613 0 600 0 587 0C574 0 561 0 548 0C535 0 522 0 509 0C496 0 483 0 469.8 0C456.7 0 443.3 0 430.2 0C417 0 404 0 391 0C378 0 365 0 352 0C339 0 326 0 313 0C300 0 287 0 274 0C261 0 248 0 235 0C222 0 209 0 196 0C183 0 170 0 156.8 0C143.7 0 130.3 0 117.2 0C104 0 91 0 78 0C65 0 52 0 39 0C26 0 13 0 6.5 0L0 0Z" fill="#020076"></path><path d="M0 42L6.5 42C13 42 26 42 39 42C52 42 65 42 78 42C91 42 104 42 117.2 42C130.3 42 143.7 42 156.8 42C170 42 183 42 196 42C209 42 222 42 235 42C248 42 261 42 274 42C287 42 300 42 313 42C326 42 339 42 352 42C365 42 378 42 391 42C404 42 417 42 430.2 42C443.3 42 456.7 42 469.8 42C483 42 496 42 509 42C522 42 535 42 548 42C561 42 574 42 587 42C600 42 613 42 626 42C639 42 652 42 665 42C678 42 691 42 704 42C717 42 730 42 743.2 42C756.3 42 769.7 42 782.8 42C796 42 809 42 822 42C835 42 848 42 861 42C874 42 887 42 893.5 42L900 42L900 17L893.5 17C887 17 874 17 861 17C848 17 835 17 822 17C809 17 796 17 782.8 17C769.7 17 756.3 17 743.2 17C730 17 717 17 704 17C691 17 678 17 665 17C652 17 639 17 626 17C613 17 600 17 587 17C574 17 561 17 548 17C535 17 522 17 509 17C496 17 483 17 469.8 17C456.7 17 443.3 17 430.2 17C417 17 404 17 391 17C378 17 365 17 352 17C339 17 326 17 313 17C300 17 287 17 274 17C261 17 248 17 235 17C222 17 209 17 196 17C183 17 170 17 156.8 17C143.7 17 130.3 17 117.2 17C104 17 91 17 78 17C65 17 52 17 39 17C26 17 13 17 6.5 17L0 17Z" fill="#081482"></path><path d="M0 64L6.5 64.8C13 65.7 26 67.3 39 67.3C52 67.3 65 65.7 78 65.7C91 65.7 104 67.3 117.2 68.2C130.3 69 143.7 69 156.8 68.2C170 67.3 183 65.7 196 65.7C209 65.7 222 67.3 235 68.2C248 69 261 69 274 69C287 69 300 69 313 68.2C326 67.3 339 65.7 352 65.7C365 65.7 378 67.3 391 68.2C404 69 417 69 430.2 69C443.3 69 456.7 69 469.8 69C483 69 496 69 509 68.2C522 67.3 535 65.7 548 65.7C561 65.7 574 67.3 587 67.3C600 67.3 613 65.7 626 64.8C639 64 652 64 665 64.8C678 65.7 691 67.3 704 67.3C717 67.3 730 65.7 743.2 65.7C756.3 65.7 769.7 67.3 782.8 68.2C796 69 809 69 822 69C835 69 848 69 861 69C874 69 887 69 893.5 69L900 69L900 40L893.5 40C887 40 874 40 861 40C848 40 835 40 822 40C809 40 796 40 782.8 40C769.7 40 756.3 40 743.2 40C730 40 717 40 704 40C691 40 678 40 665 40C652 40 639 40 626 40C613 40 600 40 587 40C574 40 561 40 548 40C535 40 522 40 509 40C496 40 483 40 469.8 40C456.7 40 443.3 40 430.2 40C417 40 404 40 391 40C378 40 365 40 352 40C339 40 326 40 313 40C300 40 287 40 274 40C261 40 248 40 235 40C222 40 209 40 196 40C183 40 170 40 156.8 40C143.7 40 130.3 40 117.2 40C104 40 91 40 78 40C65 40 52 40 39 40C26 40 13 40 6.5 40L0 40Z" fill="#10248d"></path><path d="M0 87L6.5 87C13 87 26 87 39 87C52 87 65 87 78 87C91 87 104 87 117.2 87C130.3 87 143.7 87 156.8 87C170 87 183 87 196 87C209 87 222 87 235 87.7C248 88.3 261 89.7 274 90.3C287 91 300 91 313 89.5C326 88 339 85 352 84.3C365 83.7 378 85.3 391 86.8C404 88.3 417 89.7 430.2 89.7C443.3 89.7 456.7 88.3 469.8 87.7C483 87 496 87 509 87C522 87 535 87 548 87.7C561 88.3 574 89.7 587 89.7C600 89.7 613 88.3 626 87.7C639 87 652 87 665 87C678 87 691 87 704 87C717 87 730 87 743.2 87C756.3 87 769.7 87 782.8 87.7C796 88.3 809 89.7 822 89.7C835 89.7 848 88.3 861 87.7C874 87 887 87 893.5 87L900 87L900 67L893.5 67C887 67 874 67 861 67C848 67 835 67 822 67C809 67 796 67 782.8 66.2C769.7 65.3 756.3 63.7 743.2 63.7C730 63.7 717 65.3 704 65.3C691 65.3 678 63.7 665 62.8C652 62 639 62 626 62.8C613 63.7 600 65.3 587 65.3C574 65.3 561 63.7 548 63.7C535 63.7 522 65.3 509 66.2C496 67 483 67 469.8 67C456.7 67 443.3 67 430.2 67C417 67 404 67 391 66.2C378 65.3 365 63.7 352 63.7C339 63.7 326 65.3 313 66.2C300 67 287 67 274 67C261 67 248 67 235 66.2C222 65.3 209 63.7 196 63.7C183 63.7 170 65.3 156.8 66.2C143.7 67 130.3 67 117.2 66.2C104 65.3 91 63.7 78 63.7C65 63.7 52 65.3 39 65.3C26 65.3 13 63.7 6.5 62.8L0 62Z" fill="#183299"></path><path d="M0 123L6.5 123C13 123 26 123 39 123.7C52 124.3 65 125.7 78 126.3C91 127 104 127 117.2 127C130.3 127 143.7 127 156.8 126.3C170 125.7 183 124.3 196 123.7C209 123 222 123 235 124.5C248 126 261 129 274 129.7C287 130.3 300 128.7 313 127.8C326 127 339 127 352 126.3C365 125.7 378 124.3 391 125.2C404 126 417 129 430.2 129.7C443.3 130.3 456.7 128.7 469.8 127.2C483 125.7 496 124.3 509 123.7C522 123 535 123 548 123.7C561 124.3 574 125.7 587 125.7C600 125.7 613 124.3 626 125.2C639 126 652 129 665 129C678 129 691 126 704 124.5C717 123 730 123 743.2 123C756.3 123 769.7 123 782.8 123.7C796 124.3 809 125.7 822 125.7C835 125.7 848 124.3 861 124.3C874 124.3 887 125.7 893.5 126.3L900 127L900 85L893.5 85C887 85 874 85 861 85.7C848 86.3 835 87.7 822 87.7C809 87.7 796 86.3 782.8 85.7C769.7 85 756.3 85 743.2 85C730 85 717 85 704 85C691 85 678 85 665 85C652 85 639 85 626 85.7C613 86.3 600 87.7 587 87.7C574 87.7 561 86.3 548 85.7C535 85 522 85 509 85C496 85 483 85 469.8 85.7C456.7 86.3 443.3 87.7 430.2 87.7C417 87.7 404 86.3 391 84.8C378 83.3 365 81.7 352 82.3C339 83 326 86 313 87.5C300 89 287 89 274 88.3C261 87.7 248 86.3 235 85.7C222 85 209 85 196 85C183 85 170 85 156.8 85C143.7 85 130.3 85 117.2 85C104 85 91 85 78 85C65 85 52 85 39 85C26 85 13 85 6.5 85L0 85Z" fill="#2140a3"></path><path d="M0 177L6.5 176.2C13 175.3 26 173.7 39 173.7C52 173.7 65 175.3 78 176.8C91 178.3 104 179.7 117.2 179.7C130.3 179.7 143.7 178.3 156.8 177.7C170 177 183 177 196 177C209 177 222 177 235 177.7C248 178.3 261 179.7 274 181.2C287 182.7 300 184.3 313 184.3C326 184.3 339 182.7 352 181.2C365 179.7 378 178.3 391 179.2C404 180 417 183 430.2 183.7C443.3 184.3 456.7 182.7 469.8 181.2C483 179.7 496 178.3 509 176.8C522 175.3 535 173.7 548 173.7C561 173.7 574 175.3 587 176.2C600 177 613 177 626 178.5C639 180 652 183 665 182.2C678 181.3 691 176.7 704 174.3C717 172 730 172 743.2 172C756.3 172 769.7 172 782.8 172.8C796 173.7 809 175.3 822 176.2C835 177 848 177 861 177.7C874 178.3 887 179.7 893.5 180.3L900 181L900 125L893.5 124.3C887 123.7 874 122.3 861 122.3C848 122.3 835 123.7 822 123.7C809 123.7 796 122.3 782.8 121.7C769.7 121 756.3 121 743.2 121C730 121 717 121 704 122.5C691 124 678 127 665 127C652 127 639 124 626 123.2C613 122.3 600 123.7 587 123.7C574 123.7 561 122.3 548 121.7C535 121 522 121 509 121.7C496 122.3 483 123.7 469.8 125.2C456.7 126.7 443.3 128.3 430.2 127.7C417 127 404 124 391 123.2C378 122.3 365 123.7 352 124.3C339 125 326 125 313 125.8C300 126.7 287 128.3 274 127.7C261 127 248 124 235 122.5C222 121 209 121 196 121.7C183 122.3 170 123.7 156.8 124.3C143.7 125 130.3 125 117.2 125C104 125 91 125 78 124.3C65 123.7 52 122.3 39 121.7C26 121 13 121 6.5 121L0 121Z" fill="#2a4dae"></path><path d="M0 213L6.5 212.2C13 211.3 26 209.7 39 208.8C52 208 65 208 78 208.8C91 209.7 104 211.3 117.2 211.3C130.3 211.3 143.7 209.7 156.8 209.7C170 209.7 183 211.3 196 211.3C209 211.3 222 209.7 235 209.7C248 209.7 261 211.3 274 212.8C287 214.3 300 215.7 313 215.7C326 215.7 339 214.3 352 213.7C365 213 378 213 391 214.5C404 216 417 219 430.2 219.7C443.3 220.3 456.7 218.7 469.8 216.3C483 214 496 211 509 209.5C522 208 535 208 548 208.8C561 209.7 574 211.3 587 212.2C600 213 613 213 626 213.7C639 214.3 652 215.7 665 214.8C678 214 691 211 704 209.5C717 208 730 208 743.2 208C756.3 208 769.7 208 782.8 208.8C796 209.7 809 211.3 822 212.2C835 213 848 213 861 213C874 213 887 213 893.5 213L900 213L900 179L893.5 178.3C887 177.7 874 176.3 861 175.7C848 175 835 175 822 174.2C809 173.3 796 171.7 782.8 170.8C769.7 170 756.3 170 743.2 170C730 170 717 170 704 172.3C691 174.7 678 179.3 665 180.2C652 181 639 178 626 176.5C613 175 600 175 587 174.2C574 173.3 561 171.7 548 171.7C535 171.7 522 173.3 509 174.8C496 176.3 483 177.7 469.8 179.2C456.7 180.7 443.3 182.3 430.2 181.7C417 181 404 178 391 177.2C378 176.3 365 177.7 352 179.2C339 180.7 326 182.3 313 182.3C300 182.3 287 180.7 274 179.2C261 177.7 248 176.3 235 175.7C222 175 209 175 196 175C183 175 170 175 156.8 175.7C143.7 176.3 130.3 177.7 117.2 177.7C104 177.7 91 176.3 78 174.8C65 173.3 52 171.7 39 171.7C26 171.7 13 173.3 6.5 174.2L0 175Z" fill="#345bb8"></path><path d="M0 244L6.5 243.3C13 242.7 26 241.3 39 239.8C52 238.3 65 236.7 78 236.7C91 236.7 104 238.3 117.2 238.3C130.3 238.3 143.7 236.7 156.8 237.3C170 238 183 241 196 241.8C209 242.7 222 241.3 235 240.7C248 240 261 240 274 240.7C287 241.3 300 242.7 313 242.7C326 242.7 339 241.3 352 240.7C365 240 378 240 391 241.5C404 243 417 246 430.2 246.7C443.3 247.3 456.7 245.7 469.8 244.2C483 242.7 496 241.3 509 239.8C522 238.3 535 236.7 548 236.7C561 236.7 574 238.3 587 239.8C600 241.3 613 242.7 626 243.3C639 244 652 244 665 242.5C678 241 691 238 704 237.3C717 236.7 730 238.3 743.2 239.2C756.3 240 769.7 240 782.8 240C796 240 809 240 822 240C835 240 848 240 861 240.7C874 241.3 887 242.7 893.5 243.3L900 244L900 211L893.5 211C887 211 874 211 861 211C848 211 835 211 822 210.2C809 209.3 796 207.7 782.8 206.8C769.7 206 756.3 206 743.2 206C730 206 717 206 704 207.5C691 209 678 212 665 212.8C652 213.7 639 212.3 626 211.7C613 211 600 211 587 210.2C574 209.3 561 207.7 548 206.8C535 206 522 206 509 207.5C496 209 483 212 469.8 214.3C456.7 216.7 443.3 218.3 430.2 217.7C417 217 404 214 391 212.5C378 211 365 211 352 211.7C339 212.3 326 213.7 313 213.7C300 213.7 287 212.3 274 210.8C261 209.3 248 207.7 235 207.7C222 207.7 209 209.3 196 209.3C183 209.3 170 207.7 156.8 207.7C143.7 207.7 130.3 209.3 117.2 209.3C104 209.3 91 207.7 78 206.8C65 206 52 206 39 206.8C26 207.7 13 209.3 6.5 210.2L0 211Z" fill="#3f68c2"></path><path d="M0 339L6.5 337.5C13 336 26 333 39 331.5C52 330 65 330 78 330.7C91 331.3 104 332.7 117.2 331.2C130.3 329.7 143.7 325.3 156.8 324.7C170 324 183 327 196 329.2C209 331.3 222 332.7 235 332.7C248 332.7 261 331.3 274 331.3C287 331.3 300 332.7 313 332.7C326 332.7 339 331.3 352 331.3C365 331.3 378 332.7 391 332.7C404 332.7 417 331.3 430.2 331.3C443.3 331.3 456.7 332.7 469.8 331.8C483 331 496 328 509 328C522 328 535 331 548 332.5C561 334 574 334 587 333.3C600 332.7 613 331.3 626 331.3C639 331.3 652 332.7 665 333.3C678 334 691 334 704 334.8C717 335.7 730 337.3 743.2 336.7C756.3 336 769.7 333 782.8 333C796 333 809 336 822 337.5C835 339 848 339 861 339C874 339 887 339 893.5 339L900 339L900 242L893.5 241.3C887 240.7 874 239.3 861 238.7C848 238 835 238 822 238C809 238 796 238 782.8 238C769.7 238 756.3 238 743.2 237.2C730 236.3 717 234.7 704 235.3C691 236 678 239 665 240.5C652 242 639 242 626 241.3C613 240.7 600 239.3 587 237.8C574 236.3 561 234.7 548 234.7C535 234.7 522 236.3 509 237.8C496 239.3 483 240.7 469.8 242.2C456.7 243.7 443.3 245.3 430.2 244.7C417 244 404 241 391 239.5C378 238 365 238 352 238.7C339 239.3 326 240.7 313 240.7C300 240.7 287 239.3 274 238.7C261 238 248 238 235 238.7C222 239.3 209 240.7 196 239.8C183 239 170 236 156.8 235.3C143.7 234.7 130.3 236.3 117.2 236.3C104 236.3 91 234.7 78 234.7C65 234.7 52 236.3 39 237.8C26 239.3 13 240.7 6.5 241.3L0 242Z" fill="#4a76cb"></path><path d="M0 415L6.5 415C13 415 26 415 39 415C52 415 65 415 78 415C91 415 104 415 117.2 415C130.3 415 143.7 415 156.8 415C170 415 183 415 196 415C209 415 222 415 235 415C248 415 261 415 274 415C287 415 300 415 313 415C326 415 339 415 352 415C365 415 378 415 391 415C404 415 417 415 430.2 415C443.3 415 456.7 415 469.8 415C483 415 496 415 509 415C522 415 535 415 548 415C561 415 574 415 587 415C600 415 613 415 626 415C639 415 652 415 665 415C678 415 691 415 704 415C717 415 730 415 743.2 415C756.3 415 769.7 415 782.8 415C796 415 809 415 822 415C835 415 848 415 861 415C874 415 887 415 893.5 415L900 415L900 337L893.5 337C887 337 874 337 861 337C848 337 835 337 822 335.5C809 334 796 331 782.8 331C769.7 331 756.3 334 743.2 334.7C730 335.3 717 333.7 704 332.8C691 332 678 332 665 331.3C652 330.7 639 329.3 626 329.3C613 329.3 600 330.7 587 331.3C574 332 561 332 548 330.5C535 329 522 326 509 326C496 326 483 329 469.8 329.8C456.7 330.7 443.3 329.3 430.2 329.3C417 329.3 404 330.7 391 330.7C378 330.7 365 329.3 352 329.3C339 329.3 326 330.7 313 330.7C300 330.7 287 329.3 274 329.3C261 329.3 248 330.7 235 330.7C222 330.7 209 329.3 196 327.2C183 325 170 322 156.8 322.7C143.7 323.3 130.3 327.7 117.2 329.2C104 330.7 91 329.3 78 328.7C65 328 52 328 39 329.5C26 331 13 334 6.5 335.5L0 337Z" fill="#5684d4"></path><path d="M0 433L6.5 433C13 433 26 433 39 433C52 433 65 433 78 433C91 433 104 433 117.2 433C130.3 433 143.7 433 156.8 433C170 433 183 433 196 433C209 433 222 433 235 433C248 433 261 433 274 433C287 433 300 433 313 433C326 433 339 433 352 433C365 433 378 433 391 433C404 433 417 433 430.2 433C443.3 433 456.7 433 469.8 433C483 433 496 433 509 433C522 433 535 433 548 433C561 433 574 433 587 433C600 433 613 433 626 433C639 433 652 433 665 433C678 433 691 433 704 433C717 433 730 433 743.2 433C756.3 433 769.7 433 782.8 433C796 433 809 433 822 433C835 433 848 433 861 433C874 433 887 433 893.5 433L900 433L900 413L893.5 413C887 413 874 413 861 413C848 413 835 413 822 413C809 413 796 413 782.8 413C769.7 413 756.3 413 743.2 413C730 413 717 413 704 413C691 413 678 413 665 413C652 413 639 413 626 413C613 413 600 413 587 413C574 413 561 413 548 413C535 413 522 413 509 413C496 413 483 413 469.8 413C456.7 413 443.3 413 430.2 413C417 413 404 413 391 413C378 413 365 413 352 413C339 413 326 413 313 413C300 413 287 413 274 413C261 413 248 413 235 413C222 413 209 413 196 413C183 413 170 413 156.8 413C143.7 413 130.3 413 117.2 413C104 413 91 413 78 413C65 413 52 413 39 413C26 413 13 413 6.5 413L0 413Z" fill="#6391dd"></path><path d="M0 451L6.5 451C13 451 26 451 39 451C52 451 65 451 78 451C91 451 104 451 117.2 451C130.3 451 143.7 451 156.8 451C170 451 183 451 196 451C209 451 222 451 235 451C248 451 261 451 274 451C287 451 300 451 313 451C326 451 339 451 352 451C365 451 378 451 391 451C404 451 417 451 430.2 451C443.3 451 456.7 451 469.8 451C483 451 496 451 509 451C522 451 535 451 548 451C561 451 574 451 587 451C600 451 613 451 626 451C639 451 652 451 665 451C678 451 691 451 704 451C717 451 730 451 743.2 451C756.3 451 769.7 451 782.8 451C796 451 809 451 822 451C835 451 848 451 861 451C874 451 887 451 893.5 451L900 451L900 431L893.5 431C887 431 874 431 861 431C848 431 835 431 822 431C809 431 796 431 782.8 431C769.7 431 756.3 431 743.2 431C730 431 717 431 704 431C691 431 678 431 665 431C652 431 639 431 626 431C613 431 600 431 587 431C574 431 561 431 548 431C535 431 522 431 509 431C496 431 483 431 469.8 431C456.7 431 443.3 431 430.2 431C417 431 404 431 391 431C378 431 365 431 352 431C339 431 326 431 313 431C300 431 287 431 274 431C261 431 248 431 235 431C222 431 209 431 196 431C183 431 170 431 156.8 431C143.7 431 130.3 431 117.2 431C104 431 91 431 78 431C65 431 52 431 39 431C26 431 13 431 6.5 431L0 431Z" fill="#709fe5"></path></svg>