<svg xmlns="http://www.w3.org/2000/svg" xmlns:xlink="http://www.w3.org/1999/xlink" width="250" zoomAndPan="magnify" viewBox="0 0 187.5 74.999997" height="100" preserveAspectRatio="xMidYMid meet" version="1.0"><defs><g/><clipPath id="aeb9123152"><path d="M 25 1.273438 L 38 1.273438 L 38 16 L 25 16 Z M 25 1.273438 " clip-rule="nonzero"/></clipPath><clipPath id="3cb6838868"><path d="M 1.394531 9 L 25 9 L 25 12 L 1.394531 12 Z M 1.394531 9 " clip-rule="nonzero"/></clipPath><clipPath id="3792961f1a"><path d="M 38 9 L 62.730469 9 L 62.730469 12 L 38 12 Z M 38 9 " clip-rule="nonzero"/></clipPath></defs><g clip-path="url(#aeb9123152)"><path fill="#ffffff" d="M 26.5 15.972656 C 27.816406 15.511719 29.625 15.269531 31.921875 15.242188 C 34.21875 15.269531 36.027344 15.511719 37.34375 15.972656 L 36.703125 7.828125 L 37.859375 7.34375 C 36.875 4.015625 32.628906 4.101562 31.921875 1.285156 C 31.214844 4.101562 26.96875 4.015625 25.988281 7.34375 L 27.140625 7.828125 Z M 31.921875 12.691406 L 29.917969 12.691406 L 29.917969 9.652344 C 29.917969 8.496094 30.796875 7.539062 31.921875 7.414062 C 33.046875 7.539062 33.925781 8.496094 33.925781 9.652344 L 33.925781 12.691406 Z M 31.921875 12.691406 " fill-opacity="1" fill-rule="evenodd"/></g><path fill="#ffffff" d="M 27.464844 20.914062 C 29.515625 21.011719 31.464844 21.691406 33.460938 22.089844 C 34.847656 22.363281 36.144531 22.472656 37.457031 22.40625 L 37.25 20.386719 L 39.519531 18.464844 C 35.628906 16.441406 28.335938 16.441406 24.445312 18.464844 L 26.714844 20.386719 L 26.664062 20.902344 C 26.925781 20.894531 27.195312 20.898438 27.464844 20.914062 Z M 27.464844 20.914062 " fill-opacity="1" fill-rule="evenodd"/><path fill="#ffffff" d="M 37.675781 24.550781 C 32.730469 24.839844 29.734375 22.847656 26.441406 23.066406 L 25.832031 29.015625 C 26.363281 28.953125 26.90625 28.9375 27.464844 28.964844 C 29.515625 29.0625 31.464844 29.742188 33.460938 30.140625 C 35.136719 30.472656 36.679688 30.5625 38.273438 30.394531 Z M 37.675781 24.550781 " fill-opacity="1" fill-rule="evenodd"/><path fill="#ffffff" d="M 38.492188 32.53125 C 32.621094 33.15625 29.429688 30.515625 25.609375 31.21875 L 24.996094 37.203125 C 25.789062 37.035156 26.605469 36.972656 27.464844 37.015625 C 29.515625 37.113281 31.464844 37.792969 33.460938 38.191406 C 35.417969 38.578125 37.195312 38.636719 39.085938 38.339844 Z M 38.492188 32.53125 " fill-opacity="1" fill-rule="evenodd"/><path fill="#ffffff" d="M 39.304688 40.480469 C 32.464844 41.519531 29.15625 38.109375 24.761719 39.480469 L 24.152344 45.472656 C 25.207031 45.144531 26.296875 45.007812 27.464844 45.066406 C 29.515625 45.164062 31.464844 45.84375 33.460938 46.242188 C 35.695312 46.6875 37.695312 46.699219 39.894531 46.242188 Z M 39.304688 40.480469 " fill-opacity="1" fill-rule="evenodd"/><path fill="#ffffff" d="M 40.113281 48.386719 C 32.261719 49.933594 28.921875 45.628906 23.90625 47.855469 L 23.144531 55.308594 C 26.535156 53.414062 29.082031 54.558594 32.503906 55.308594 C 34.742188 55.800781 37.355469 56.121094 40.820312 55.308594 Z M 40.113281 48.386719 " fill-opacity="1" fill-rule="evenodd"/><path fill="#ffffff" d="M 23.144531 60.59375 C 28.753906 57.457031 32.054688 62.644531 40.820312 60.59375 L 42.90625 60.078125 L 44.957031 59.433594 C 47.859375 58.546875 49.867188 59.367188 52.121094 60.464844 L 52.121094 58.089844 C 51.386719 57.757812 50.636719 57.460938 49.851562 57.25 C 47.976562 56.746094 46.1875 56.8125 44.328125 57.375 L 42.273438 58.003906 L 42.285156 58.042969 L 40.332031 58.5 C 37.957031 59.058594 35.84375 59.074219 33.460938 58.597656 C 31.464844 58.203125 29.515625 57.523438 27.464844 57.421875 C 25.523438 57.328125 23.789062 57.769531 22.097656 58.71875 L 20.222656 59.765625 L 18.355469 60.832031 C 15.921875 62.191406 13.921875 61.984375 11.722656 61.484375 L 11.722656 63.683594 C 12.484375 63.84375 13.253906 63.964844 14.035156 64.003906 C 15.976562 64.097656 17.710938 63.65625 19.402344 62.707031 L 21.28125 61.660156 Z M 23.144531 60.59375 " fill-opacity="1" fill-rule="evenodd"/><path fill="#ffffff" d="M 23.144531 66.269531 C 28.753906 63.132812 32.054688 68.320312 40.820312 66.269531 L 42.90625 65.753906 L 44.957031 65.105469 C 49.972656 63.578125 52.308594 67.136719 57.890625 68.417969 L 57.890625 66.203125 C 57.085938 65.988281 56.285156 65.703125 55.460938 65.347656 C 53.59375 64.535156 51.832031 63.457031 49.851562 62.925781 C 47.976562 62.421875 46.1875 62.484375 44.328125 63.050781 L 42.273438 63.675781 L 42.285156 63.71875 L 40.332031 64.175781 C 37.957031 64.730469 35.84375 64.746094 33.460938 64.273438 C 31.464844 63.875 29.515625 63.195312 27.464844 63.097656 C 25.523438 63.003906 23.789062 63.445312 22.097656 64.390625 L 20.222656 65.441406 L 18.355469 66.507812 C 14.035156 68.921875 11.085938 66.402344 5.953125 66.050781 L 5.953125 68.207031 C 6.632812 68.261719 7.324219 68.359375 8.039062 68.5 C 10.035156 68.898438 11.988281 69.578125 14.035156 69.675781 C 15.976562 69.769531 17.710938 69.328125 19.402344 68.382812 L 21.28125 67.335938 Z M 23.144531 66.269531 " fill-opacity="1" fill-rule="evenodd"/><g clip-path="url(#3cb6838868)"><path fill="#ffffff" d="M 24.894531 10.152344 L 1.394531 9.191406 L 1.394531 11.097656 Z M 24.894531 10.152344 " fill-opacity="1" fill-rule="evenodd"/></g><path fill="#ffffff" d="M 24.574219 8.589844 L 5.652344 2.847656 L 5.25 4.398438 Z M 24.574219 8.589844 " fill-opacity="1" fill-rule="evenodd"/><path fill="#ffffff" d="M 24.574219 11.695312 L 5.652344 17.441406 L 5.25 15.890625 Z M 24.574219 11.695312 " fill-opacity="1" fill-rule="evenodd"/><g clip-path="url(#3792961f1a)"><path fill="#ffffff" d="M 38.949219 10.152344 L 62.449219 9.191406 L 62.449219 11.097656 Z M 38.949219 10.152344 " fill-opacity="1" fill-rule="evenodd"/></g><path fill="#ffffff" d="M 39.269531 8.589844 L 58.191406 2.847656 L 58.59375 4.398438 Z M 39.269531 8.589844 " fill-opacity="1" fill-rule="evenodd"/><path fill="#ffffff" d="M 39.269531 11.695312 L 58.191406 17.441406 L 58.59375 15.890625 Z M 39.269531 11.695312 " fill-opacity="1" fill-rule="evenodd"/><g fill="#ffffff" fill-opacity="1"><g transform="translate(62.471065, 42.636802)"><g><path d="M 1.46875 0 L 1.46875 -14.140625 L 4.21875 -14.140625 L 4.21875 -2.40625 L 11.421875 -2.40625 L 11.421875 0 Z M 1.46875 0 "/></g></g></g><g fill="#ffffff" fill-opacity="1"><g transform="translate(74.094994, 42.636802)"><g><path d="M 1.21875 0 L 1.21875 -10.4375 L 3.875 -10.4375 L 3.875 0 Z M 1.21875 -11.890625 L 1.21875 -14.53125 L 3.875 -14.53125 L 3.875 -11.890625 Z M 1.21875 -11.890625 "/></g></g></g><g fill="#ffffff" fill-opacity="1"><g transform="translate(79.170509, 42.636802)"><g><path d="M 5.296875 0.0625 C 4.609375 0.0625 3.972656 -0.0703125 3.390625 -0.34375 C 2.816406 -0.613281 2.320312 -0.992188 1.90625 -1.484375 C 1.488281 -1.984375 1.164062 -2.550781 0.9375 -3.1875 C 0.707031 -3.820312 0.59375 -4.5 0.59375 -5.21875 C 0.59375 -5.96875 0.710938 -6.664062 0.953125 -7.3125 C 1.191406 -7.96875 1.523438 -8.546875 1.953125 -9.046875 C 2.390625 -9.546875 2.898438 -9.929688 3.484375 -10.203125 C 4.078125 -10.472656 4.734375 -10.609375 5.453125 -10.609375 C 6.265625 -10.609375 6.972656 -10.425781 7.578125 -10.0625 C 8.191406 -9.695312 8.695312 -9.207031 9.09375 -8.59375 L 9.09375 -10.4375 L 11.421875 -10.4375 L 11.421875 -0.5 C 11.421875 0.539062 11.171875 1.425781 10.671875 2.15625 C 10.179688 2.894531 9.5 3.457031 8.625 3.84375 C 7.75 4.238281 6.753906 4.4375 5.640625 4.4375 C 4.503906 4.4375 3.546875 4.242188 2.765625 3.859375 C 1.984375 3.484375 1.3125 2.953125 0.75 2.265625 L 2.203125 0.859375 C 2.609375 1.347656 3.113281 1.726562 3.71875 2 C 4.320312 2.28125 4.960938 2.421875 5.640625 2.421875 C 6.203125 2.421875 6.71875 2.316406 7.1875 2.109375 C 7.664062 1.910156 8.046875 1.59375 8.328125 1.15625 C 8.617188 0.726562 8.765625 0.175781 8.765625 -0.5 L 8.765625 -1.8125 C 8.410156 -1.21875 7.914062 -0.753906 7.28125 -0.421875 C 6.65625 -0.0976562 5.992188 0.0625 5.296875 0.0625 Z M 6.1875 -2.0625 C 6.476562 -2.0625 6.753906 -2.109375 7.015625 -2.203125 C 7.285156 -2.296875 7.535156 -2.421875 7.765625 -2.578125 C 7.992188 -2.742188 8.191406 -2.9375 8.359375 -3.15625 C 8.535156 -3.375 8.671875 -3.597656 8.765625 -3.828125 L 8.765625 -6.3125 C 8.597656 -6.71875 8.367188 -7.070312 8.078125 -7.375 C 7.796875 -7.6875 7.476562 -7.925781 7.125 -8.09375 C 6.78125 -8.257812 6.414062 -8.34375 6.03125 -8.34375 C 5.625 -8.34375 5.253906 -8.253906 4.921875 -8.078125 C 4.585938 -7.910156 4.300781 -7.671875 4.0625 -7.359375 C 3.820312 -7.046875 3.640625 -6.695312 3.515625 -6.3125 C 3.390625 -5.9375 3.328125 -5.546875 3.328125 -5.140625 C 3.328125 -4.710938 3.398438 -4.3125 3.546875 -3.9375 C 3.691406 -3.570312 3.890625 -3.25 4.140625 -2.96875 C 4.398438 -2.6875 4.707031 -2.460938 5.0625 -2.296875 C 5.414062 -2.140625 5.789062 -2.0625 6.1875 -2.0625 Z M 6.1875 -2.0625 "/></g></g></g><g fill="#ffffff" fill-opacity="1"><g transform="translate(91.78964, 42.636802)"><g><path d="M 10.90625 0 L 8.234375 0 L 8.234375 -5.859375 C 8.234375 -6.660156 8.078125 -7.257812 7.765625 -7.65625 C 7.460938 -8.0625 7.035156 -8.265625 6.484375 -8.265625 C 6.171875 -8.265625 5.832031 -8.171875 5.46875 -7.984375 C 5.113281 -7.796875 4.789062 -7.539062 4.5 -7.21875 C 4.21875 -6.894531 4.007812 -6.519531 3.875 -6.09375 L 3.875 0 L 1.21875 0 L 1.21875 -14.53125 L 3.875 -14.53125 L 3.875 -8.5 C 4.257812 -9.164062 4.785156 -9.679688 5.453125 -10.046875 C 6.117188 -10.421875 6.84375 -10.609375 7.625 -10.609375 C 8.300781 -10.609375 8.847656 -10.488281 9.265625 -10.25 C 9.691406 -10.019531 10.023438 -9.707031 10.265625 -9.3125 C 10.503906 -8.925781 10.671875 -8.488281 10.765625 -8 C 10.859375 -7.519531 10.90625 -7.023438 10.90625 -6.515625 Z M 10.90625 0 "/></g></g></g><g fill="#ffffff" fill-opacity="1"><g transform="translate(103.811654, 42.636802)"><g><path d="M 7.46875 -0.53125 C 7.238281 -0.4375 6.960938 -0.332031 6.640625 -0.21875 C 6.328125 -0.101562 5.988281 -0.0078125 5.625 0.0625 C 5.257812 0.132812 4.890625 0.171875 4.515625 0.171875 C 4.023438 0.171875 3.570312 0.0859375 3.15625 -0.078125 C 2.75 -0.253906 2.421875 -0.53125 2.171875 -0.90625 C 1.929688 -1.28125 1.8125 -1.773438 1.8125 -2.390625 L 1.8125 -8.375 L 0.4375 -8.375 L 0.4375 -10.4375 L 1.8125 -10.4375 L 1.8125 -13.8125 L 4.484375 -13.8125 L 4.484375 -10.4375 L 6.671875 -10.4375 L 6.671875 -8.375 L 4.484375 -8.375 L 4.484375 -3.28125 C 4.492188 -2.925781 4.59375 -2.664062 4.78125 -2.5 C 4.96875 -2.34375 5.195312 -2.265625 5.46875 -2.265625 C 5.75 -2.265625 6.019531 -2.3125 6.28125 -2.40625 C 6.550781 -2.5 6.765625 -2.578125 6.921875 -2.640625 Z M 7.46875 -0.53125 "/></g></g></g><g fill="#ffffff" fill-opacity="1"><g transform="translate(111.454786, 42.636802)"><g><path d="M 10.90625 0 L 8.234375 0 L 8.234375 -5.859375 C 8.234375 -6.660156 8.078125 -7.257812 7.765625 -7.65625 C 7.460938 -8.0625 7.035156 -8.265625 6.484375 -8.265625 C 6.171875 -8.265625 5.832031 -8.171875 5.46875 -7.984375 C 5.113281 -7.796875 4.789062 -7.539062 4.5 -7.21875 C 4.21875 -6.894531 4.007812 -6.519531 3.875 -6.09375 L 3.875 0 L 1.21875 0 L 1.21875 -14.53125 L 3.875 -14.53125 L 3.875 -8.5 C 4.257812 -9.164062 4.785156 -9.679688 5.453125 -10.046875 C 6.117188 -10.421875 6.84375 -10.609375 7.625 -10.609375 C 8.300781 -10.609375 8.847656 -10.488281 9.265625 -10.25 C 9.691406 -10.019531 10.023438 -9.707031 10.265625 -9.3125 C 10.503906 -8.925781 10.671875 -8.488281 10.765625 -8 C 10.859375 -7.519531 10.90625 -7.023438 10.90625 -6.515625 Z M 10.90625 0 "/></g></g></g><g fill="#ffffff" fill-opacity="1"><g transform="translate(123.4768, 42.636802)"><g><path d="M 6.03125 0.203125 C 5.175781 0.203125 4.410156 0.0625 3.734375 -0.21875 C 3.066406 -0.507812 2.492188 -0.90625 2.015625 -1.40625 C 1.546875 -1.914062 1.1875 -2.492188 0.9375 -3.140625 C 0.6875 -3.796875 0.5625 -4.484375 0.5625 -5.203125 C 0.5625 -5.929688 0.6875 -6.617188 0.9375 -7.265625 C 1.1875 -7.910156 1.546875 -8.484375 2.015625 -8.984375 C 2.492188 -9.492188 3.066406 -9.890625 3.734375 -10.171875 C 4.410156 -10.460938 5.175781 -10.609375 6.03125 -10.609375 C 6.882812 -10.609375 7.644531 -10.460938 8.3125 -10.171875 C 8.976562 -9.890625 9.550781 -9.492188 10.03125 -8.984375 C 10.507812 -8.484375 10.867188 -7.910156 11.109375 -7.265625 C 11.359375 -6.617188 11.484375 -5.929688 11.484375 -5.203125 C 11.484375 -4.484375 11.359375 -3.796875 11.109375 -3.140625 C 10.867188 -2.492188 10.515625 -1.914062 10.046875 -1.40625 C 9.578125 -0.90625 9.003906 -0.507812 8.328125 -0.21875 C 7.648438 0.0625 6.882812 0.203125 6.03125 0.203125 Z M 3.296875 -5.203125 C 3.296875 -4.585938 3.414062 -4.039062 3.65625 -3.5625 C 3.894531 -3.09375 4.21875 -2.722656 4.625 -2.453125 C 5.039062 -2.191406 5.507812 -2.0625 6.03125 -2.0625 C 6.53125 -2.0625 6.984375 -2.195312 7.390625 -2.46875 C 7.804688 -2.75 8.140625 -3.125 8.390625 -3.59375 C 8.640625 -4.0625 8.765625 -4.601562 8.765625 -5.21875 C 8.765625 -5.8125 8.640625 -6.347656 8.390625 -6.828125 C 8.140625 -7.304688 7.804688 -7.675781 7.390625 -7.9375 C 6.984375 -8.207031 6.53125 -8.34375 6.03125 -8.34375 C 5.507812 -8.34375 5.039062 -8.207031 4.625 -7.9375 C 4.21875 -7.664062 3.894531 -7.289062 3.65625 -6.8125 C 3.414062 -6.34375 3.296875 -5.804688 3.296875 -5.203125 Z M 3.296875 -5.203125 "/></g></g></g><g fill="#ffffff" fill-opacity="1"><g transform="translate(135.538613, 42.636802)"><g><path d="M 1.109375 -3.90625 L 1.109375 -10.4375 L 3.78125 -10.4375 L 3.78125 -4.484375 C 3.78125 -3.679688 3.925781 -3.078125 4.21875 -2.671875 C 4.507812 -2.265625 4.941406 -2.0625 5.515625 -2.0625 C 5.859375 -2.0625 6.195312 -2.128906 6.53125 -2.265625 C 6.875 -2.410156 7.1875 -2.625 7.46875 -2.90625 C 7.757812 -3.1875 8.003906 -3.539062 8.203125 -3.96875 L 8.203125 -10.4375 L 10.875 -10.4375 L 10.875 -2.984375 C 10.875 -2.703125 10.921875 -2.5 11.015625 -2.375 C 11.117188 -2.257812 11.28125 -2.191406 11.5 -2.171875 L 11.5 0 C 11.238281 0.0390625 11.015625 0.0703125 10.828125 0.09375 C 10.648438 0.113281 10.488281 0.125 10.34375 0.125 C 9.875 0.125 9.488281 0.015625 9.1875 -0.203125 C 8.882812 -0.421875 8.707031 -0.722656 8.65625 -1.109375 L 8.59375 -1.953125 C 8.132812 -1.242188 7.539062 -0.707031 6.8125 -0.34375 C 6.082031 0.0195312 5.28125 0.203125 4.40625 0.203125 C 3.320312 0.203125 2.5 -0.144531 1.9375 -0.84375 C 1.382812 -1.539062 1.109375 -2.5625 1.109375 -3.90625 Z M 1.109375 -3.90625 "/></g></g></g><g fill="#ffffff" fill-opacity="1"><g transform="translate(147.83928, 42.636802)"><g><path d="M 5.0625 0.203125 C 4.164062 0.203125 3.3125 0.0546875 2.5 -0.234375 C 1.695312 -0.523438 1.003906 -0.957031 0.421875 -1.53125 L 1.375 -3.265625 C 2 -2.765625 2.613281 -2.394531 3.21875 -2.15625 C 3.820312 -1.914062 4.398438 -1.796875 4.953125 -1.796875 C 5.472656 -1.796875 5.890625 -1.882812 6.203125 -2.0625 C 6.515625 -2.25 6.671875 -2.53125 6.671875 -2.90625 C 6.671875 -3.15625 6.582031 -3.347656 6.40625 -3.484375 C 6.238281 -3.628906 5.988281 -3.753906 5.65625 -3.859375 C 5.332031 -3.960938 4.941406 -4.082031 4.484375 -4.21875 C 3.710938 -4.46875 3.066406 -4.710938 2.546875 -4.953125 C 2.023438 -5.191406 1.632812 -5.492188 1.375 -5.859375 C 1.125 -6.222656 1 -6.691406 1 -7.265625 C 1 -7.953125 1.171875 -8.546875 1.515625 -9.046875 C 1.867188 -9.546875 2.359375 -9.929688 2.984375 -10.203125 C 3.617188 -10.484375 4.363281 -10.625 5.21875 -10.625 C 5.957031 -10.625 6.660156 -10.507812 7.328125 -10.28125 C 7.992188 -10.050781 8.597656 -9.675781 9.140625 -9.15625 L 8.0625 -7.46875 C 7.53125 -7.875 7.023438 -8.171875 6.546875 -8.359375 C 6.066406 -8.554688 5.582031 -8.65625 5.09375 -8.65625 C 4.8125 -8.65625 4.546875 -8.617188 4.296875 -8.546875 C 4.054688 -8.484375 3.859375 -8.375 3.703125 -8.21875 C 3.554688 -8.070312 3.484375 -7.859375 3.484375 -7.578125 C 3.484375 -7.328125 3.550781 -7.128906 3.6875 -6.984375 C 3.832031 -6.847656 4.046875 -6.726562 4.328125 -6.625 C 4.609375 -6.519531 4.957031 -6.398438 5.375 -6.265625 C 6.207031 -6.023438 6.910156 -5.78125 7.484375 -5.53125 C 8.066406 -5.28125 8.503906 -4.972656 8.796875 -4.609375 C 9.085938 -4.242188 9.234375 -3.742188 9.234375 -3.109375 C 9.234375 -2.066406 8.851562 -1.253906 8.09375 -0.671875 C 7.34375 -0.0859375 6.332031 0.203125 5.0625 0.203125 Z M 5.0625 0.203125 "/></g></g></g><g fill="#ffffff" fill-opacity="1"><g transform="translate(157.671847, 42.636802)"><g><path d="M 6.046875 0.203125 C 5.210938 0.203125 4.457031 0.0625 3.78125 -0.21875 C 3.101562 -0.507812 2.523438 -0.90625 2.046875 -1.40625 C 1.566406 -1.90625 1.195312 -2.472656 0.9375 -3.109375 C 0.6875 -3.753906 0.5625 -4.4375 0.5625 -5.15625 C 0.5625 -6.15625 0.78125 -7.0625 1.21875 -7.875 C 1.664062 -8.695312 2.300781 -9.359375 3.125 -9.859375 C 3.957031 -10.359375 4.941406 -10.609375 6.078125 -10.609375 C 7.210938 -10.609375 8.1875 -10.359375 9 -9.859375 C 9.8125 -9.359375 10.429688 -8.703125 10.859375 -7.890625 C 11.285156 -7.078125 11.5 -6.195312 11.5 -5.25 C 11.5 -5.09375 11.492188 -4.929688 11.484375 -4.765625 C 11.472656 -4.597656 11.460938 -4.460938 11.453125 -4.359375 L 3.390625 -4.359375 C 3.441406 -3.828125 3.59375 -3.363281 3.84375 -2.96875 C 4.101562 -2.570312 4.4375 -2.269531 4.84375 -2.0625 C 5.25 -1.851562 5.6875 -1.75 6.15625 -1.75 C 6.6875 -1.75 7.1875 -1.878906 7.65625 -2.140625 C 8.125 -2.398438 8.445312 -2.742188 8.625 -3.171875 L 10.90625 -2.53125 C 10.65625 -2 10.289062 -1.523438 9.8125 -1.109375 C 9.34375 -0.703125 8.789062 -0.378906 8.15625 -0.140625 C 7.519531 0.0859375 6.816406 0.203125 6.046875 0.203125 Z M 3.328125 -6.046875 L 8.78125 -6.046875 C 8.726562 -6.578125 8.578125 -7.035156 8.328125 -7.421875 C 8.085938 -7.816406 7.765625 -8.125 7.359375 -8.34375 C 6.960938 -8.5625 6.519531 -8.671875 6.03125 -8.671875 C 5.550781 -8.671875 5.113281 -8.5625 4.71875 -8.34375 C 4.332031 -8.125 4.015625 -7.816406 3.765625 -7.421875 C 3.523438 -7.035156 3.378906 -6.578125 3.328125 -6.046875 Z M 3.328125 -6.046875 "/></g></g></g><g fill="#ffffff" fill-opacity="1"><g transform="translate(63.269725, 67.915105)"><g><path d="M 7.09375 -14.03125 L 8.40625 -14.03125 L 10.390625 -9.015625 L 12.40625 -14.03125 L 13.734375 -14.03125 L 11.265625 -8 L 13.96875 -1.609375 L 19.09375 -14.140625 L 20.609375 -14.140625 L 14.609375 0 L 13.375 0 L 10.40625 -6.984375 L 7.421875 0 L 6.203125 0 L 0.234375 -14.140625 L 1.734375 -14.140625 L 6.875 -1.609375 L 9.5625 -8 Z M 7.09375 -14.03125 "/></g></g></g><g fill="#ffffff" fill-opacity="1"><g transform="translate(84.089293, 67.915105)"><g><path d="M 5.96875 0.203125 C 5.226562 0.203125 4.539062 0.0625 3.90625 -0.21875 C 3.269531 -0.507812 2.71875 -0.90625 2.25 -1.40625 C 1.78125 -1.90625 1.414062 -2.476562 1.15625 -3.125 C 0.90625 -3.769531 0.78125 -4.46875 0.78125 -5.21875 C 0.78125 -6.1875 1 -7.070312 1.4375 -7.875 C 1.882812 -8.6875 2.5 -9.332031 3.28125 -9.8125 C 4.0625 -10.300781 4.953125 -10.546875 5.953125 -10.546875 C 6.972656 -10.546875 7.863281 -10.300781 8.625 -9.8125 C 9.394531 -9.320312 10 -8.675781 10.4375 -7.875 C 10.875 -7.070312 11.09375 -6.191406 11.09375 -5.234375 C 11.09375 -5.128906 11.09375 -5.023438 11.09375 -4.921875 C 11.09375 -4.828125 11.082031 -4.753906 11.0625 -4.703125 L 2.1875 -4.703125 C 2.257812 -3.953125 2.46875 -3.285156 2.8125 -2.703125 C 3.164062 -2.128906 3.625 -1.675781 4.1875 -1.34375 C 4.75 -1.007812 5.363281 -0.84375 6.03125 -0.84375 C 6.707031 -0.84375 7.347656 -1.015625 7.953125 -1.359375 C 8.554688 -1.703125 8.976562 -2.148438 9.21875 -2.703125 L 10.390625 -2.390625 C 10.179688 -1.898438 9.859375 -1.453125 9.421875 -1.046875 C 8.984375 -0.648438 8.46875 -0.34375 7.875 -0.125 C 7.28125 0.09375 6.644531 0.203125 5.96875 0.203125 Z M 2.15625 -5.671875 L 9.8125 -5.671875 C 9.757812 -6.429688 9.554688 -7.09375 9.203125 -7.65625 C 8.847656 -8.226562 8.390625 -8.675781 7.828125 -9 C 7.265625 -9.332031 6.644531 -9.5 5.96875 -9.5 C 5.289062 -9.5 4.671875 -9.332031 4.109375 -9 C 3.554688 -8.675781 3.101562 -8.222656 2.75 -7.640625 C 2.40625 -7.066406 2.207031 -6.410156 2.15625 -5.671875 Z M 2.15625 -5.671875 "/></g></g></g><g fill="#ffffff" fill-opacity="1"><g transform="translate(95.772938, 67.915105)"><g><path d="M 6.5625 0.203125 C 5.757812 0.203125 5.007812 -0.00390625 4.3125 -0.421875 C 3.625 -0.847656 3.085938 -1.378906 2.703125 -2.015625 L 2.703125 0 L 1.5 0 L 1.5 -14.53125 L 2.84375 -14.53125 L 2.84375 -8.203125 C 3.3125 -8.898438 3.867188 -9.460938 4.515625 -9.890625 C 5.171875 -10.328125 5.925781 -10.546875 6.78125 -10.546875 C 7.519531 -10.546875 8.175781 -10.394531 8.75 -10.09375 C 9.320312 -9.789062 9.8125 -9.382812 10.21875 -8.875 C 10.632812 -8.363281 10.945312 -7.785156 11.15625 -7.140625 C 11.375 -6.492188 11.484375 -5.832031 11.484375 -5.15625 C 11.484375 -4.425781 11.359375 -3.742188 11.109375 -3.109375 C 10.867188 -2.472656 10.519531 -1.90625 10.0625 -1.40625 C 9.613281 -0.90625 9.09375 -0.507812 8.5 -0.21875 C 7.914062 0.0625 7.269531 0.203125 6.5625 0.203125 Z M 6.25 -1 C 6.8125 -1 7.328125 -1.109375 7.796875 -1.328125 C 8.273438 -1.554688 8.6875 -1.867188 9.03125 -2.265625 C 9.382812 -2.660156 9.648438 -3.109375 9.828125 -3.609375 C 10.015625 -4.109375 10.109375 -4.625 10.109375 -5.15625 C 10.109375 -5.882812 9.953125 -6.570312 9.640625 -7.21875 C 9.328125 -7.863281 8.894531 -8.378906 8.34375 -8.765625 C 7.800781 -9.160156 7.15625 -9.359375 6.40625 -9.359375 C 5.875 -9.359375 5.378906 -9.238281 4.921875 -9 C 4.460938 -8.757812 4.054688 -8.441406 3.703125 -8.046875 C 3.359375 -7.660156 3.070312 -7.234375 2.84375 -6.765625 L 2.84375 -3.546875 C 2.894531 -3.179688 3.035156 -2.84375 3.265625 -2.53125 C 3.492188 -2.21875 3.773438 -1.945312 4.109375 -1.71875 C 4.453125 -1.5 4.804688 -1.320312 5.171875 -1.1875 C 5.546875 -1.0625 5.90625 -1 6.25 -1 Z M 6.25 -1 "/></g></g></g><g fill="#ffffff" fill-opacity="1"><g transform="translate(108.0537, 67.915105)"><g/></g></g><g fill="#ffffff" fill-opacity="1"><g transform="translate(113.129215, 67.915105)"><g><path d="M 1.765625 0 L 1.765625 -14.140625 L 6.5625 -14.140625 C 8.0625 -14.140625 9.3125 -13.820312 10.3125 -13.1875 C 11.320312 -12.5625 12.078125 -11.710938 12.578125 -10.640625 C 13.085938 -9.566406 13.34375 -8.382812 13.34375 -7.09375 C 13.34375 -5.65625 13.066406 -4.40625 12.515625 -3.34375 C 11.960938 -2.28125 11.175781 -1.457031 10.15625 -0.875 C 9.144531 -0.289062 7.945312 0 6.5625 0 Z M 11.9375 -7.09375 C 11.9375 -8.21875 11.726562 -9.21875 11.3125 -10.09375 C 10.894531 -10.96875 10.285156 -11.65625 9.484375 -12.15625 C 8.691406 -12.65625 7.71875 -12.90625 6.5625 -12.90625 L 3.171875 -12.90625 L 3.171875 -1.234375 L 6.5625 -1.234375 C 7.738281 -1.234375 8.722656 -1.488281 9.515625 -2 C 10.304688 -2.519531 10.90625 -3.222656 11.3125 -4.109375 C 11.726562 -4.992188 11.9375 -5.988281 11.9375 -7.09375 Z M 11.9375 -7.09375 "/></g></g></g><g fill="#ffffff" fill-opacity="1"><g transform="translate(127.360571, 67.915105)"><g><path d="M 5.96875 0.203125 C 5.226562 0.203125 4.539062 0.0625 3.90625 -0.21875 C 3.269531 -0.507812 2.71875 -0.90625 2.25 -1.40625 C 1.78125 -1.90625 1.414062 -2.476562 1.15625 -3.125 C 0.90625 -3.769531 0.78125 -4.46875 0.78125 -5.21875 C 0.78125 -6.1875 1 -7.070312 1.4375 -7.875 C 1.882812 -8.6875 2.5 -9.332031 3.28125 -9.8125 C 4.0625 -10.300781 4.953125 -10.546875 5.953125 -10.546875 C 6.972656 -10.546875 7.863281 -10.300781 8.625 -9.8125 C 9.394531 -9.320312 10 -8.675781 10.4375 -7.875 C 10.875 -7.070312 11.09375 -6.191406 11.09375 -5.234375 C 11.09375 -5.128906 11.09375 -5.023438 11.09375 -4.921875 C 11.09375 -4.828125 11.082031 -4.753906 11.0625 -4.703125 L 2.1875 -4.703125 C 2.257812 -3.953125 2.46875 -3.285156 2.8125 -2.703125 C 3.164062 -2.128906 3.625 -1.675781 4.1875 -1.34375 C 4.75 -1.007812 5.363281 -0.84375 6.03125 -0.84375 C 6.707031 -0.84375 7.347656 -1.015625 7.953125 -1.359375 C 8.554688 -1.703125 8.976562 -2.148438 9.21875 -2.703125 L 10.390625 -2.390625 C 10.179688 -1.898438 9.859375 -1.453125 9.421875 -1.046875 C 8.984375 -0.648438 8.46875 -0.34375 7.875 -0.125 C 7.28125 0.09375 6.644531 0.203125 5.96875 0.203125 Z M 2.15625 -5.671875 L 9.8125 -5.671875 C 9.757812 -6.429688 9.554688 -7.09375 9.203125 -7.65625 C 8.847656 -8.226562 8.390625 -8.675781 7.828125 -9 C 7.265625 -9.332031 6.644531 -9.5 5.96875 -9.5 C 5.289062 -9.5 4.671875 -9.332031 4.109375 -9 C 3.554688 -8.675781 3.101562 -8.222656 2.75 -7.640625 C 2.40625 -7.066406 2.207031 -6.410156 2.15625 -5.671875 Z M 2.15625 -5.671875 "/></g></g></g><g fill="#ffffff" fill-opacity="1"><g transform="translate(139.044215, 67.915105)"><g><path d="M 4.890625 0.203125 C 4.046875 0.203125 3.257812 0.0625 2.53125 -0.21875 C 1.800781 -0.5 1.171875 -0.925781 0.640625 -1.5 L 1.1875 -2.453125 C 1.769531 -1.898438 2.359375 -1.5 2.953125 -1.25 C 3.546875 -1.007812 4.175781 -0.890625 4.84375 -0.890625 C 5.644531 -0.890625 6.296875 -1.050781 6.796875 -1.375 C 7.304688 -1.707031 7.5625 -2.175781 7.5625 -2.78125 C 7.5625 -3.195312 7.4375 -3.515625 7.1875 -3.734375 C 6.945312 -3.953125 6.597656 -4.128906 6.140625 -4.265625 C 5.679688 -4.410156 5.132812 -4.5625 4.5 -4.71875 C 3.78125 -4.914062 3.175781 -5.125 2.6875 -5.34375 C 2.207031 -5.5625 1.84375 -5.835938 1.59375 -6.171875 C 1.351562 -6.515625 1.234375 -6.957031 1.234375 -7.5 C 1.234375 -8.175781 1.398438 -8.738281 1.734375 -9.1875 C 2.078125 -9.632812 2.539062 -9.972656 3.125 -10.203125 C 3.71875 -10.429688 4.378906 -10.546875 5.109375 -10.546875 C 5.910156 -10.546875 6.613281 -10.421875 7.21875 -10.171875 C 7.832031 -9.921875 8.332031 -9.566406 8.71875 -9.109375 L 8.0625 -8.203125 C 7.6875 -8.628906 7.242188 -8.941406 6.734375 -9.140625 C 6.222656 -9.347656 5.65625 -9.453125 5.03125 -9.453125 C 4.613281 -9.453125 4.210938 -9.394531 3.828125 -9.28125 C 3.441406 -9.164062 3.125 -8.976562 2.875 -8.71875 C 2.632812 -8.46875 2.515625 -8.113281 2.515625 -7.65625 C 2.515625 -7.289062 2.601562 -7.003906 2.78125 -6.796875 C 2.96875 -6.585938 3.25 -6.414062 3.625 -6.28125 C 4 -6.144531 4.457031 -5.992188 5 -5.828125 C 5.78125 -5.617188 6.460938 -5.40625 7.046875 -5.1875 C 7.628906 -4.96875 8.078125 -4.6875 8.390625 -4.34375 C 8.710938 -4 8.875 -3.515625 8.875 -2.890625 C 8.875 -1.921875 8.507812 -1.160156 7.78125 -0.609375 C 7.050781 -0.0664062 6.085938 0.203125 4.890625 0.203125 Z M 4.890625 0.203125 "/></g></g></g><g fill="#ffffff" fill-opacity="1"><g transform="translate(148.657846, 67.915105)"><g><path d="M 1.5 0 L 1.5 -10.375 L 2.84375 -10.375 L 2.84375 0 Z M 1.5 -12.546875 L 1.5 -14.53125 L 2.84375 -14.53125 L 2.84375 -12.546875 Z M 1.5 -12.546875 "/></g></g></g><g fill="#ffffff" fill-opacity="1"><g transform="translate(152.996918, 67.915105)"><g><path d="M 5.65625 0.140625 C 4.945312 0.140625 4.296875 -0.00390625 3.703125 -0.296875 C 3.109375 -0.585938 2.59375 -0.984375 2.15625 -1.484375 C 1.726562 -1.984375 1.394531 -2.550781 1.15625 -3.1875 C 0.914062 -3.820312 0.796875 -4.476562 0.796875 -5.15625 C 0.796875 -5.882812 0.910156 -6.570312 1.140625 -7.21875 C 1.378906 -7.863281 1.710938 -8.4375 2.140625 -8.9375 C 2.566406 -9.4375 3.070312 -9.828125 3.65625 -10.109375 C 4.238281 -10.398438 4.890625 -10.546875 5.609375 -10.546875 C 6.503906 -10.546875 7.28125 -10.320312 7.9375 -9.875 C 8.59375 -9.425781 9.144531 -8.867188 9.59375 -8.203125 L 9.59375 -10.375 L 10.8125 -10.375 L 10.8125 0.046875 C 10.8125 0.992188 10.582031 1.796875 10.125 2.453125 C 9.664062 3.109375 9.046875 3.601562 8.265625 3.9375 C 7.492188 4.269531 6.648438 4.4375 5.734375 4.4375 C 4.554688 4.4375 3.597656 4.222656 2.859375 3.796875 C 2.128906 3.378906 1.535156 2.8125 1.078125 2.09375 L 1.90625 1.4375 C 2.320312 2.082031 2.867188 2.5625 3.546875 2.875 C 4.234375 3.195312 4.960938 3.359375 5.734375 3.359375 C 6.410156 3.359375 7.03125 3.234375 7.59375 2.984375 C 8.15625 2.742188 8.601562 2.378906 8.9375 1.890625 C 9.28125 1.398438 9.453125 0.785156 9.453125 0.046875 L 9.453125 -2.015625 C 9.054688 -1.359375 8.507812 -0.832031 7.8125 -0.4375 C 7.125 -0.0507812 6.40625 0.140625 5.65625 0.140625 Z M 6.03125 -1 C 6.445312 -1 6.84375 -1.070312 7.21875 -1.21875 C 7.59375 -1.363281 7.9375 -1.554688 8.25 -1.796875 C 8.570312 -2.046875 8.835938 -2.320312 9.046875 -2.625 C 9.265625 -2.925781 9.398438 -3.238281 9.453125 -3.5625 L 9.453125 -6.765625 C 9.253906 -7.273438 8.96875 -7.722656 8.59375 -8.109375 C 8.226562 -8.503906 7.804688 -8.8125 7.328125 -9.03125 C 6.859375 -9.25 6.375 -9.359375 5.875 -9.359375 C 5.289062 -9.359375 4.769531 -9.234375 4.3125 -8.984375 C 3.851562 -8.742188 3.46875 -8.421875 3.15625 -8.015625 C 2.84375 -7.609375 2.597656 -7.148438 2.421875 -6.640625 C 2.253906 -6.140625 2.171875 -5.640625 2.171875 -5.140625 C 2.171875 -4.578125 2.269531 -4.046875 2.46875 -3.546875 C 2.664062 -3.054688 2.941406 -2.613281 3.296875 -2.21875 C 3.648438 -1.820312 4.0625 -1.519531 4.53125 -1.3125 C 5 -1.101562 5.5 -1 6.03125 -1 Z M 6.03125 -1 "/></g></g></g><g fill="#ffffff" fill-opacity="1"><g transform="translate(165.297585, 67.915105)"><g><path d="M 10.21875 0 L 8.859375 0 L 8.859375 -5.796875 C 8.859375 -7.015625 8.675781 -7.90625 8.3125 -8.46875 C 7.957031 -9.03125 7.394531 -9.3125 6.625 -9.3125 C 6.09375 -9.3125 5.566406 -9.179688 5.046875 -8.921875 C 4.535156 -8.671875 4.082031 -8.320312 3.6875 -7.875 C 3.300781 -7.425781 3.019531 -6.914062 2.84375 -6.34375 L 2.84375 0 L 1.5 0 L 1.5 -10.375 L 2.734375 -10.375 L 2.734375 -8.015625 C 3.003906 -8.523438 3.363281 -8.96875 3.8125 -9.34375 C 4.269531 -9.71875 4.78125 -10.007812 5.34375 -10.21875 C 5.914062 -10.4375 6.507812 -10.546875 7.125 -10.546875 C 7.695312 -10.546875 8.179688 -10.4375 8.578125 -10.21875 C 8.972656 -10.007812 9.289062 -9.707031 9.53125 -9.3125 C 9.769531 -8.925781 9.941406 -8.457031 10.046875 -7.90625 C 10.160156 -7.363281 10.21875 -6.753906 10.21875 -6.078125 Z M 10.21875 0 "/></g></g></g><g fill="#ffffff" fill-opacity="1"><g transform="translate(176.901608, 67.915105)"><g><path d="M 4.890625 0.203125 C 4.046875 0.203125 3.257812 0.0625 2.53125 -0.21875 C 1.800781 -0.5 1.171875 -0.925781 0.640625 -1.5 L 1.1875 -2.453125 C 1.769531 -1.898438 2.359375 -1.5 2.953125 -1.25 C 3.546875 -1.007812 4.175781 -0.890625 4.84375 -0.890625 C 5.644531 -0.890625 6.296875 -1.050781 6.796875 -1.375 C 7.304688 -1.707031 7.5625 -2.175781 7.5625 -2.78125 C 7.5625 -3.195312 7.4375 -3.515625 7.1875 -3.734375 C 6.945312 -3.953125 6.597656 -4.128906 6.140625 -4.265625 C 5.679688 -4.410156 5.132812 -4.5625 4.5 -4.71875 C 3.78125 -4.914062 3.175781 -5.125 2.6875 -5.34375 C 2.207031 -5.5625 1.84375 -5.835938 1.59375 -6.171875 C 1.351562 -6.515625 1.234375 -6.957031 1.234375 -7.5 C 1.234375 -8.175781 1.398438 -8.738281 1.734375 -9.1875 C 2.078125 -9.632812 2.539062 -9.972656 3.125 -10.203125 C 3.71875 -10.429688 4.378906 -10.546875 5.109375 -10.546875 C 5.910156 -10.546875 6.613281 -10.421875 7.21875 -10.171875 C 7.832031 -9.921875 8.332031 -9.566406 8.71875 -9.109375 L 8.0625 -8.203125 C 7.6875 -8.628906 7.242188 -8.941406 6.734375 -9.140625 C 6.222656 -9.347656 5.65625 -9.453125 5.03125 -9.453125 C 4.613281 -9.453125 4.210938 -9.394531 3.828125 -9.28125 C 3.441406 -9.164062 3.125 -8.976562 2.875 -8.71875 C 2.632812 -8.46875 2.515625 -8.113281 2.515625 -7.65625 C 2.515625 -7.289062 2.601562 -7.003906 2.78125 -6.796875 C 2.96875 -6.585938 3.25 -6.414062 3.625 -6.28125 C 4 -6.144531 4.457031 -5.992188 5 -5.828125 C 5.78125 -5.617188 6.460938 -5.40625 7.046875 -5.1875 C 7.628906 -4.96875 8.078125 -4.6875 8.390625 -4.34375 C 8.710938 -4 8.875 -3.515625 8.875 -2.890625 C 8.875 -1.921875 8.507812 -1.160156 7.78125 -0.609375 C 7.050781 -0.0664062 6.085938 0.203125 4.890625 0.203125 Z M 4.890625 0.203125 "/></g></g></g></svg>