<svg id="Layer_1" enable-background="new 0 0 512 512" viewBox="0 0 512 512" xmlns="http://www.w3.org/2000/svg" xmlns:xlink="http://www.w3.org/1999/xlink"><linearGradient id="SVGID_1_" gradientUnits="userSpaceOnUse" x1="86.54" x2="271.76" y1="199.025" y2="199.025"><stop offset="0" stop-color="#c16bff"/><stop offset=".1291" stop-color="#bc6dff"/><stop offset=".2734" stop-color="#af74ff"/><stop offset=".4251" stop-color="#997fff"/><stop offset=".5818" stop-color="#798fff"/><stop offset=".7424" stop-color="#51a3ff"/><stop offset=".9041" stop-color="#20bcff"/><stop offset="1" stop-color="#0cf"/></linearGradient><path d="m84.03 288.93c-3.13-3.13-8.2-3.13-11.33 0l-20.24 20.24c-3.13 3.13-3.13 8.2 0 11.33 1.57 1.56 3.61 2.34 5.66 2.34s4.1-.78 5.67-2.34l20.24-20.24c3.12-3.13 3.12-8.2 0-11.33zm221.83 20.24-20.27-20.24c-3.13-3.13-8.2-3.12-11.32.01-3.13 3.12-3.12 8.2.01 11.32l20.26 20.24c1.57 1.56 3.62 2.34 5.66 2.34 2.05 0 4.11-.78 5.67-2.35 3.12-3.13 3.12-8.2-.01-11.32zm-64.17-140c-6.56-6.56-15.3-10.17-24.62-10.17h-.03c-9.31 0-18.04 3.62-24.57 10.17l-13.31 13.3-13.3-13.3c-13.58-13.58-35.67-13.58-49.25 0-6.56 6.56-10.17 15.3-10.17 24.62 0 9.33 3.61 18.07 10.17 24.63 6.79 6.79 15.71 10.18 24.63 10.18 8.91 0 17.83-3.39 24.62-10.18l13.3-13.3 13.3 13.29c6.54 6.56 15.27 10.17 24.58 10.18h.03c9.32 0 18.06-3.61 24.62-10.17s10.17-15.3 10.17-24.63c0-9.32-3.61-18.06-10.17-24.62zm-87.15 37.92c-3.54 3.54-8.26 5.48-13.3 5.48-5.05 0-9.77-1.94-13.31-5.48-3.53-3.53-5.47-8.25-5.47-13.3 0-5.04 1.94-9.77 5.47-13.3 3.67-3.66 8.49-5.5 13.31-5.5 4.81 0 9.63 1.84 13.3 5.5l13.3 13.3zm75.82 0c-3.53 3.54-8.25 5.48-13.29 5.48h-.02c-5.03 0-9.74-1.94-13.26-5.48l-13.3-13.3 13.3-13.3.01-.01c3.51-3.52 8.22-5.46 13.25-5.47h.02c5.04 0 9.76 1.95 13.29 5.48 3.54 3.53 5.48 8.26 5.48 13.3 0 5.05-1.94 9.77-5.48 13.3zm119.96-21.3h-28.63c-4.42 0-8.01 3.58-8.01 8 0 4.43 3.59 8.01 8.01 8.01h28.63c4.42 0 8.01-3.58 8.01-8.01 0-4.42-3.59-8-8.01-8zm-266.29-98.46-20.24-20.24c-3.13-3.13-8.2-3.13-11.33 0s-3.13 8.2 0 11.33l20.24 20.24c1.56 1.56 3.61 2.34 5.66 2.34s4.1-.78 5.67-2.34c3.12-3.13 3.12-8.2 0-11.33zm95.13-72.7c-4.42 0-8 3.58-8 8.01v28.63c0 4.42 3.58 8.01 8 8.01 4.43 0 8.01-3.59 8.01-8.01v-28.63c0-4.43-3.58-8.01-8.01-8.01zm126.71 52.47c-3.13-3.13-8.2-3.14-11.33-.01l-20.26 20.24c-3.13 3.12-3.14 8.19-.01 11.32 1.56 1.57 3.61 2.35 5.67 2.35 2.04 0 4.09-.78 5.65-2.34l20.27-20.24c3.13-3.12 3.13-8.19.01-11.32zm-269.26 118.69h-28.63c-4.42 0-8.01 3.58-8.01 8 0 4.43 3.59 8.01 8.01 8.01h28.63c4.42 0 8.01-3.58 8.01-8.01 0-4.42-3.59-8-8.01-8zm313.71 0h-28.63c-4.42 0-8.01 3.58-8.01 8 0 4.43 3.59 8.01 8.01 8.01h28.63c4.42 0 8.01-3.58 8.01-8.01 0-4.42-3.59-8-8.01-8zm-44.46 123.38-20.27-20.24c-3.13-3.13-8.2-3.12-11.32.01-3.13 3.12-3.12 8.2.01 11.32l20.26 20.24c1.57 1.56 3.62 2.34 5.66 2.34 2.05 0 4.11-.78 5.67-2.35 3.12-3.13 3.12-8.2-.01-11.32zm-64.17-140c-6.56-6.56-15.3-10.17-24.62-10.17h-.03c-9.31 0-18.04 3.62-24.57 10.17l-13.31 13.3-13.3-13.3c-13.58-13.58-35.67-13.58-49.25 0-6.56 6.56-10.17 15.3-10.17 24.62 0 9.33 3.61 18.07 10.17 24.63 6.79 6.79 15.71 10.18 24.63 10.18 8.91 0 17.83-3.39 24.62-10.18l13.3-13.3 13.3 13.29c6.54 6.56 15.27 10.17 24.58 10.18h.03c9.32 0 18.06-3.61 24.62-10.17s10.17-15.3 10.17-24.63c0-9.32-3.61-18.06-10.17-24.62zm-87.15 37.92c-3.54 3.54-8.26 5.48-13.3 5.48-5.05 0-9.77-1.94-13.31-5.48-3.53-3.53-5.47-8.25-5.47-13.3 0-5.04 1.94-9.77 5.47-13.3 3.67-3.66 8.49-5.5 13.31-5.5 4.81 0 9.63 1.84 13.3 5.5l13.3 13.3zm75.82 0c-3.53 3.54-8.25 5.48-13.29 5.48h-.02c-5.03 0-9.74-1.94-13.26-5.48l-13.3-13.3 13.3-13.3.01-.01c3.51-3.52 8.22-5.46 13.25-5.47h.02c5.04 0 9.76 1.95 13.29 5.48 3.54 3.53 5.48 8.26 5.48 13.3 0 5.05-1.94 9.77-5.48 13.3zm11.33-37.92c-6.56-6.56-15.3-10.17-24.62-10.17h-.03c-9.31 0-18.04 3.62-24.57 10.17l-13.31 13.3-13.3-13.3c-13.58-13.58-35.67-13.58-49.25 0-6.56 6.56-10.17 15.3-10.17 24.62 0 9.33 3.61 18.07 10.17 24.63 6.79 6.79 15.71 10.18 24.63 10.18 8.91 0 17.83-3.39 24.62-10.18l13.3-13.3 13.3 13.29c6.54 6.56 15.27 10.17 24.58 10.18h.03c9.32 0 18.06-3.61 24.62-10.17s10.17-15.3 10.17-24.63c0-9.32-3.61-18.06-10.17-24.62zm-87.15 37.92c-3.54 3.54-8.26 5.48-13.3 5.48-5.05 0-9.77-1.94-13.31-5.48-3.53-3.53-5.47-8.25-5.47-13.3 0-5.04 1.94-9.77 5.47-13.3 3.67-3.66 8.49-5.5 13.31-5.5 4.81 0 9.63 1.84 13.3 5.5l13.3 13.3zm75.82 0c-3.53 3.54-8.25 5.48-13.29 5.48h-.02c-5.03 0-9.74-1.94-13.26-5.48l-13.3-13.3 13.3-13.3.01-.01c3.51-3.52 8.22-5.46 13.25-5.47h.02c5.04 0 9.76 1.95 13.29 5.48 3.54 3.53 5.48 8.26 5.48 13.3 0 5.05-1.94 9.77-5.48 13.3zm75.5 102.08-20.27-20.24c-3.13-3.13-8.2-3.12-11.32.01-3.13 3.12-3.12 8.2.01 11.32l20.26 20.24c1.57 1.56 3.62 2.34 5.66 2.34 2.05 0 4.11-.78 5.67-2.35 3.12-3.13 3.12-8.2-.01-11.32zm44.46-123.38h-28.63c-4.42 0-8.01 3.58-8.01 8 0 4.43 3.59 8.01 8.01 8.01h28.63c4.42 0 8.01-3.58 8.01-8.01 0-4.42-3.59-8-8.01-8zm0 0h-28.63c-4.42 0-8.01 3.58-8.01 8 0 4.43 3.59 8.01 8.01 8.01h28.63c4.42 0 8.01-3.58 8.01-8.01 0-4.42-3.59-8-8.01-8zm-64.73 103.14c-3.13-3.13-8.2-3.12-11.32.01-3.13 3.12-3.12 8.2.01 11.32l20.26 20.24c1.57 1.56 3.62 2.34 5.66 2.34 2.05 0 4.11-.78 5.67-2.35 3.12-3.13 3.12-8.2-.01-11.32zm-43.9-119.76c-6.56-6.56-15.3-10.17-24.62-10.17h-.03c-9.31 0-18.04 3.62-24.57 10.17l-13.31 13.3-13.3-13.3c-13.58-13.58-35.67-13.58-49.25 0-6.56 6.56-10.17 15.3-10.17 24.62 0 9.33 3.61 18.07 10.17 24.63 6.79 6.79 15.71 10.18 24.63 10.18 8.91 0 17.83-3.39 24.62-10.18l13.3-13.3 13.3 13.29c6.54 6.56 15.27 10.17 24.58 10.18h.03c9.32 0 18.06-3.61 24.62-10.17s10.17-15.3 10.17-24.63c0-9.32-3.61-18.06-10.17-24.62zm-87.15 37.92c-3.54 3.54-8.26 5.48-13.3 5.48-5.05 0-9.77-1.94-13.31-5.48-3.53-3.53-5.47-8.25-5.47-13.3 0-5.04 1.94-9.77 5.47-13.3 3.67-3.66 8.49-5.5 13.31-5.5 4.81 0 9.63 1.84 13.3 5.5l13.3 13.3zm75.82 0c-3.53 3.54-8.25 5.48-13.29 5.48h-.02c-5.03 0-9.74-1.94-13.26-5.48l-13.3-13.3 13.3-13.3.01-.01c3.51-3.52 8.22-5.46 13.25-5.47h.02c5.04 0 9.76 1.95 13.29 5.48 3.54 3.53 5.48 8.26 5.48 13.3 0 5.05-1.94 9.77-5.48 13.3zm274.82 126.01c-.15-.25-.31-.48-.49-.71-25.66-32.93-25.6-45.49-25.53-61.4.02-4.37.04-8.9-.42-14.08-3.58-39.5-25.21-74.07-60.9-97.34-41.88-27.31-98.36-35.67-145.77-21.98-19.06-31.39-53.57-52.41-92.91-52.41-59.9 0-108.63 48.73-108.63 108.61 0 39.67 16.28 57.85 33.51 77.09 2.61 2.91 5.3 5.92 7.94 9.01 9 10.56 13.37 22.41 13.37 36.25v17.94c0 25.85 21.01 46.87 46.84 46.87h13.92c12.76 0 24.35-5.13 32.81-13.44 16.21 24.93 23.96 49.73 3.19 100.02-2.82 6.79-2.09 14.18 2 20.26 4.09 6.09 10.62 9.58 17.93 9.58h141.3c9.99 0 18.62-6.78 20.99-16.5l5.77-23.78c36.99 6.77 57.27 4.35 67.18-7.79 6.91-8.46 7.6-20.36 2.09-36.26 5.49-3.92 8.87-9.51 9.04-15.51.1-3.5-.91-6.8-2.86-9.69 2.58-2.63 4.6-5.86 5.4-9.56.33-1.53.55-3.62.17-6.07 7.42-1.17 14.97-3.98 18.76-11 3.98-7.37 2.44-16.57-4.7-28.11zm-292.4 16.47c-.17.24-.32.5-.45.75-5.45 8.77-15.16 14.62-26.22 14.62h-13.92c-12.43 0-23.15-7.41-28.03-18.03h70c-.42.91-.88 1.8-1.38 2.66zm4.18-33.43v14.75h-75.6v-14.75c0-1.1-.02-2.2-.06-3.28h75.73c-.04 1.08-.07 2.18-.07 3.28zm-78.07-19.29c-2.68-9.9-7.56-18.95-14.73-27.36-2.77-3.24-5.52-6.32-8.19-9.29-16.44-18.36-29.43-32.86-29.43-66.41 0-51.05 41.55-92.59 92.62-92.59 51.06 0 92.6 41.54 92.6 92.59 0 33.53-12.97 48.03-29.39 66.38-2.67 2.99-5.43 6.07-8.22 9.33-7.15 8.41-12.03 17.45-14.71 27.35zm356.9 56.75c-1.11 2.05-6.98 3.23-17.45 3.52l-.69.02c-3.3.1-6.21 2.21-7.32 5.33-1.1 3.11-.18 6.59 2.32 8.74 2.13 1.84 2.75 3.2 2.65 3.67-.32 1.47-3.25 3.78-5.7 4.49-3.27.95-5.58 3.87-5.76 7.28-.17 3.4 1.82 6.54 4.98 7.83 2.75 1.12 3.59 2.3 3.58 2.6-.03.91-1.77 3.26-5.68 4.6-2.1.72-3.81 2.29-4.72 4.32-.9 2.03-.92 4.35-.05 6.39 3.88 9.1 7.53 21.14 2.93 26.78-5.95 7.29-25.85 7.54-59.16.76-4.22-.86-8.37 1.78-9.38 5.96l-7.57 31.2c-.63 2.59-2.76 4.26-5.43 4.26h-141.3c-1.99 0-3.51-.81-4.64-2.49-1.1-1.64-1.26-3.34-.49-5.21 25.08-60.74 11.87-91.12-8.14-120.2 2.7-5.91 4.21-12.46 4.21-19.37v-17.94c0-13.84 4.37-25.69 13.36-36.25 2.66-3.11 5.35-6.12 7.96-9.04 17.21-19.24 33.47-37.41 33.47-77.06 0-14.74-2.96-28.81-8.31-41.65 42.46-11.28 92.38-3.45 129.63 20.84 31.5 20.55 50.57 50.86 53.7 85.37.4 4.42.38 8.56.36 12.57-.08 17.43-.16 33.91 28.63 70.96 4.33 7.1 4.52 10.77 4.01 11.72zm-145.47-167.81h-28.63c-4.42 0-8.01 3.58-8.01 8 0 4.43 3.59 8.01 8.01 8.01h28.63c4.42 0 8.01-3.58 8.01-8.01 0-4.42-3.59-8-8.01-8zm-64.73 103.14c-3.13-3.13-8.2-3.12-11.32.01-3.13 3.12-3.12 8.2.01 11.32l20.26 20.24c1.57 1.56 3.62 2.34 5.66 2.34 2.05 0 4.11-.78 5.67-2.35 3.12-3.13 3.12-8.2-.01-11.32zm-33.73-95.14c0-9.32-3.61-18.06-10.17-24.62s-15.3-10.17-24.62-10.17h-.03c-9.31 0-18.04 3.62-24.57 10.17l-13.31 13.3-13.3-13.3c-13.58-13.58-35.67-13.58-49.25 0-6.56 6.56-10.17 15.3-10.17 24.62 0 9.33 3.61 18.07 10.17 24.63 6.79 6.79 15.71 10.18 24.63 10.18 8.91 0 17.83-3.39 24.62-10.18l13.3-13.3 13.3 13.29c6.54 6.56 15.27 10.17 24.58 10.18h.03c9.32 0 18.06-3.61 24.62-10.17s10.17-15.3 10.17-24.63zm-97.32 13.3c-3.54 3.54-8.26 5.48-13.3 5.48-5.05 0-9.77-1.94-13.31-5.48-3.53-3.53-5.47-8.25-5.47-13.3 0-5.04 1.94-9.77 5.47-13.3 3.67-3.66 8.49-5.5 13.31-5.5 4.81 0 9.63 1.84 13.3 5.5l13.3 13.3zm75.82 0c-3.53 3.54-8.25 5.48-13.29 5.48h-.02c-5.03 0-9.74-1.94-13.26-5.48l-13.3-13.3 13.3-13.3.01-.01c3.51-3.52 8.22-5.46 13.25-5.47h.02c5.04 0 9.76 1.95 13.29 5.48 3.54 3.53 5.48 8.26 5.48 13.3 0 5.05-1.94 9.77-5.48 13.3zm11.33-37.92c-6.56-6.56-15.3-10.17-24.62-10.17h-.03c-9.31 0-18.04 3.62-24.57 10.17l-13.31 13.3-13.3-13.3c-13.58-13.58-35.67-13.58-49.25 0-6.56 6.56-10.17 15.3-10.17 24.62 0 9.33 3.61 18.07 10.17 24.63 6.79 6.79 15.71 10.18 24.63 10.18 8.91 0 17.83-3.39 24.62-10.18l13.3-13.3 13.3 13.29c6.54 6.56 15.27 10.17 24.58 10.18h.03c9.32 0 18.06-3.61 24.62-10.17s10.17-15.3 10.17-24.63c0-9.32-3.61-18.06-10.17-24.62zm-87.15 37.92c-3.54 3.54-8.26 5.48-13.3 5.48-5.05 0-9.77-1.94-13.31-5.48-3.53-3.53-5.47-8.25-5.47-13.3 0-5.04 1.94-9.77 5.47-13.3 3.67-3.66 8.49-5.5 13.31-5.5 4.81 0 9.63 1.84 13.3 5.5l13.3 13.3zm75.82 0c-3.53 3.54-8.25 5.48-13.29 5.48h-.02c-5.03 0-9.74-1.94-13.26-5.48l-13.3-13.3 13.3-13.3.01-.01c3.51-3.52 8.22-5.46 13.25-5.47h.02c5.04 0 9.76 1.95 13.29 5.48 3.54 3.53 5.48 8.26 5.48 13.3 0 5.05-1.94 9.77-5.48 13.3zm75.5 102.08-20.27-20.24c-3.13-3.13-8.2-3.12-11.32.01-3.13 3.12-3.12 8.2.01 11.32l20.26 20.24c1.57 1.56 3.62 2.34 5.66 2.34 2.05 0 4.11-.78 5.67-2.35 3.12-3.13 3.12-8.2-.01-11.32zm44.46-123.38h-28.63c-4.42 0-8.01 3.58-8.01 8 0 4.43 3.59 8.01 8.01 8.01h28.63c4.42 0 8.01-3.58 8.01-8.01 0-4.42-3.59-8-8.01-8zm0 0h-28.63c-4.42 0-8.01 3.58-8.01 8 0 4.43 3.59 8.01 8.01 8.01h28.63c4.42 0 8.01-3.58 8.01-8.01 0-4.42-3.59-8-8.01-8zm-44.46 123.38-20.27-20.24c-3.13-3.13-8.2-3.12-11.32.01-3.13 3.12-3.12 8.2.01 11.32l20.26 20.24c1.57 1.56 3.62 2.34 5.66 2.34 2.05 0 4.11-.78 5.67-2.35 3.12-3.13 3.12-8.2-.01-11.32zm-64.17-140c-6.56-6.56-15.3-10.17-24.62-10.17h-.03c-9.31 0-18.04 3.62-24.57 10.17l-13.31 13.3-13.3-13.3c-13.58-13.58-35.67-13.58-49.25 0-6.56 6.56-10.17 15.3-10.17 24.62 0 9.33 3.61 18.07 10.17 24.63 6.79 6.79 15.71 10.18 24.63 10.18 8.91 0 17.83-3.39 24.62-10.18l13.3-13.3 13.3 13.29c6.54 6.56 15.27 10.17 24.58 10.18h.03c9.32 0 18.06-3.61 24.62-10.17s10.17-15.3 10.17-24.63c0-9.32-3.61-18.06-10.17-24.62zm-87.15 37.92c-3.54 3.54-8.26 5.48-13.3 5.48-5.05 0-9.77-1.94-13.31-5.48-3.53-3.53-5.47-8.25-5.47-13.3 0-5.04 1.94-9.77 5.47-13.3 3.67-3.66 8.49-5.5 13.31-5.5 4.81 0 9.63 1.84 13.3 5.5l13.3 13.3zm75.82 0c-3.53 3.54-8.25 5.48-13.29 5.48h-.02c-5.03 0-9.74-1.94-13.26-5.48l-13.3-13.3 13.3-13.3.01-.01c3.51-3.52 8.22-5.46 13.25-5.47h.02c5.04 0 9.76 1.95 13.29 5.48 3.54 3.53 5.48 8.26 5.48 13.3 0 5.05-1.94 9.77-5.48 13.3z" fill="#5407a5"/><path d="m179.16 101.2c-51.07 0-92.62 41.54-92.62 92.59 0 33.55 12.99 48.05 29.43 66.41 2.67 2.97 5.42 6.05 8.19 9.29 7.17 8.41 12.05 17.46 14.73 27.36h80.55c2.68-9.9 7.56-18.94 14.71-27.35 2.79-3.26 5.55-6.34 8.22-9.33 16.42-18.35 29.39-32.85 29.39-66.38 0-51.05-41.54-92.59-92.6-92.59zm62.53 117.22c-6.56 6.56-15.3 10.17-24.62 10.17h-.03c-9.31-.01-18.04-3.62-24.58-10.18l-13.3-13.29-13.3 13.3c-6.79 6.79-15.71 10.18-24.62 10.18-8.92 0-17.84-3.39-24.63-10.18-6.56-6.56-10.17-15.3-10.17-24.63 0-9.32 3.61-18.06 10.17-24.62 13.58-13.58 35.67-13.58 49.25 0l13.3 13.3 13.31-13.3c6.53-6.55 15.26-10.17 24.57-10.17h.03c9.32 0 18.06 3.61 24.62 10.17s10.17 15.3 10.17 24.62c0 9.33-3.61 18.07-10.17 24.63zm-11.33-37.93c3.54 3.53 5.48 8.26 5.48 13.3 0 5.05-1.94 9.77-5.48 13.3-3.53 3.54-8.25 5.48-13.29 5.48h-.02c-5.03 0-9.74-1.94-13.26-5.48l-13.3-13.3 13.3-13.3.01-.01c3.51-3.52 8.22-5.46 13.25-5.47h.02c5.04 0 9.76 1.95 13.29 5.48zm-75.82 0 13.3 13.3-13.3 13.3c-3.54 3.54-8.26 5.48-13.3 5.48-5.05 0-9.77-1.94-13.31-5.48-3.53-3.53-5.47-8.25-5.47-13.3 0-5.04 1.94-9.77 5.47-13.3 3.67-3.66 8.49-5.5 13.31-5.5 4.81 0 9.63 1.84 13.3 5.5z" fill="url(#SVGID_1_)"/></svg>