<svg id="visual" viewBox="0 0 900 675" width="900" height="675" xmlns="http://www.w3.org/2000/svg" xmlns:xlink="http://www.w3.org/1999/xlink" version="1.1"><rect width="900" height="675" fill="#ffffff"></rect><g><g transform="translate(412 166)"><path d="M0 -97.3L84.2 -48.6L84.2 48.6L0 97.3L-84.2 48.6L-84.2 -48.6Z" stroke="#bdcfd7" fill="none" stroke-width="2"></path></g><g transform="translate(511 482)"><path d="M0 -42L36.4 -21L36.4 21L0 42L-36.4 21L-36.4 -21Z" stroke="#bdcfd7" fill="none" stroke-width="2"></path></g><g transform="translate(700 111)"><path d="M0 -96L83.1 -48L83.1 48L0 96L-83.1 48L-83.1 -48Z" stroke="#bdcfd7" fill="none" stroke-width="2"></path></g><g transform="translate(668 340)"><path d="M0 -84L72.7 -42L72.7 42L0 84L-72.7 42L-72.7 -42Z" stroke="#bdcfd7" fill="none" stroke-width="2"></path></g><g transform="translate(211 566)"><path d="M0 -27L23.4 -13.5L23.4 13.5L0 27L-23.4 13.5L-23.4 -13.5Z" stroke="#bdcfd7" fill="none" stroke-width="2"></path></g></g></svg>