<svg xmlns="http://www.w3.org/2000/svg" version="1.1" xmlns:xlink="http://www.w3.org/1999/xlink" width="512" height="512" x="0" y="0" viewBox="0 0 513 513" style="enable-background:new 0 0 512 512" xml:space="preserve"><g><linearGradient id="a" x1="318.776" x2="318.776" y1="64.61" y2="432.412" gradientUnits="userSpaceOnUse"><stop stop-opacity="1" stop-color="#0066ff" offset="0"></stop><stop stop-opacity="1" stop-color="#8224c7" offset="0.3783783783783784"></stop><stop stop-opacity="1" stop-color="#8224c7" offset="1"></stop></linearGradient><g fill="url(#a)"><path fill-rule="evenodd" d="M293.616 110.413c-6.19-3.013-19.474-5.999-36.442-5.793-17.983.248-35.747 4.229-49.998 15.975m86.44-10.182c15.992 7.835 39.298 23.241 39.298 54.209 0 34.056-19.714 49.342-53.682 72.7-18.424 12.67-31.379 26.174-39.545 41.354-8.238 15.315-10.773 30.796-10.773 45.946 0 11.046 8.955 20 20 20 11.046 0 20-8.954 20-20 0-10.49 1.706-19.014 6-26.996 4.366-8.118 12.237-17.204 26.983-27.344l.769-.529c32.211-22.147 70.248-48.3 70.248-105.131 0-55.82-43.496-81.214-61.723-90.141l-.016-.008-.016-.008c-13.835-6.745-34.017-10.093-54.49-9.842h-.028c-23.032.315-51.042 5.435-74.907 25.106-19.205 15.83-29.42 33.807-34.793 48.009-2.676 7.072-4.157 13.218-4.979 17.743a77.457 77.457 0 0 0-.81 5.544 54.076 54.076 0 0 0-.198 2.332l-.012.222-.005.092-.002.041-.001.019c0 .01-.001.019 19.98.891l-19.981-.872c-.481 11.035 8.074 20.371 19.11 20.853 10.964.478 20.251-7.965 20.842-18.898.004-.057.016-.2.04-.425.055-.507.169-1.416.394-2.656.452-2.49 1.337-6.248 3.034-10.733 3.372-8.913 9.928-20.667 22.823-31.296" clip-rule="evenodd" fill="" opacity="1"></path><path d="M248.914 432.612c17.674 0 32-14.327 32-32s-14.326-32-32-32c-17.673 0-32 14.327-32 32s14.327 32 32 32z" fill="" opacity="1"></path></g></g></svg>