<svg xmlns="http://www.w3.org/2000/svg" version="1.1" xmlns:xlink="http://www.w3.org/1999/xlink" width="512" height="512" x="0" y="0" viewBox="0 0 512 512" style="enable-background:new 0 0 512 512" xml:space="preserve" class=""><g><linearGradient id="a" x1="89.819" x2="422.18" y1="-31.833" y2="543.833" gradientUnits="userSpaceOnUse"><stop stop-opacity="1" stop-color="#0099fd" offset="0"></stop><stop stop-opacity="1" stop-color="#0066ff" offset="0"></stop><stop stop-opacity="1" stop-color="#00b0df" offset="0"></stop><stop stop-opacity="1" stop-color="#009ff5" offset="0"></stop><stop stop-opacity="1" stop-color="#0066ff" offset="0"></stop><stop stop-opacity="1" stop-color="#0066ff" offset="0.007722007722007722"></stop><stop stop-opacity="1" stop-color="#0066ff" offset="0.007722007722007722"></stop><stop stop-opacity="1" stop-color="#0066ff" offset="0.023166023166023165"></stop><stop stop-opacity="1" stop-color="#0066ff" offset="0.023166023166023165"></stop><stop stop-opacity="1" stop-color="#0066ff" offset="0.03088803088803089"></stop><stop stop-opacity="1" stop-color="#0066ff" offset="0.04247104247104247"></stop><stop stop-opacity="1" stop-color="#0066ff" offset="0.04247104247104247"></stop><stop stop-opacity="1" stop-color="#009ff5" offset="0.05019305019305019"></stop><stop stop-opacity="1" stop-color="#009ff5" offset="0.05019305019305019"></stop><stop stop-opacity="1" stop-color="#0066ff" offset="0.05405405405405406"></stop><stop stop-opacity="1" stop-color="#0066ff" offset="0.05405405405405406"></stop><stop stop-opacity="1" stop-color="#0066ff" offset="0.05405405405405406"></stop><stop stop-opacity="1" stop-color="#0066ff" offset="0.05791505791505792"></stop><stop stop-opacity="1" stop-color="#0066ff" offset="0.06563706563706563"></stop><stop stop-opacity="1" stop-color="#0066ff" offset="0.09652509652509653"></stop><stop stop-opacity="1" stop-color="#0066ff" offset="0.10038610038610038"></stop><stop stop-opacity="1" stop-color="#0066ff" offset="0.10038610038610038"></stop><stop stop-opacity="1" stop-color="#0066ff" offset="0.10810810810810811"></stop><stop stop-opacity="1" stop-color="#0066ff" offset="0.10810810810810811"></stop><stop stop-opacity="1" stop-color="#0066ff" offset="0.11969111969111969"></stop><stop stop-opacity="1" stop-color="#0066ff" offset="0.21621621621621623"></stop><stop stop-opacity="1" stop-color="#0066ff" offset="0.21621621621621623"></stop><stop stop-opacity="1" stop-color="#0066ff" offset="0.3474903474903475"></stop><stop stop-opacity="1" stop-color="#0066ff" offset="0.3474903474903475"></stop><stop stop-opacity="1" stop-color="#8224cf" offset="0.694980694980695"></stop><stop stop-opacity="1" stop-color="#8224cf" offset="1"></stop></linearGradient><path fill="url(#a)" d="M498.109 430.993a47.458 47.458 0 0 1-67.116 67.116L263.671 330.784a10.848 10.848 0 0 0-15.341 0L81.007 498.109a47.459 47.459 0 0 1-67.117-67.116l167.325-167.319a10.847 10.847 0 0 0 0-15.341L13.891 81.007a47.458 47.458 0 0 1 67.116-67.116L248.33 181.22a10.851 10.851 0 0 0 15.341 0L430.993 13.891a47.458 47.458 0 0 1 67.116 67.116L330.784 248.333a10.847 10.847 0 0 0 0 15.341z" opacity="1" data-original="url(#a)" class=""></path></g></svg>